<svg width="50" height="38" viewBox="0 0 50 38" fill="none" xmlns="http://www.w3.org/2000/svg">
<path d="M42.3269 3.32151C39.1395 1.913 35.7229 0.87193 32.1501 0.279948C32.1183 0.273963 32.0853 0.27782 32.0558 0.290986C32.0263 0.304152 32.0018 0.325976 31.9855 0.353435C31.548 1.10668 31.0605 2.08856 30.7189 2.86426C26.9296 2.3095 23.0772 2.3095 19.2879 2.86426C18.9074 2.00458 18.4783 1.16634 18.0026 0.353435C17.9864 0.325638 17.962 0.303321 17.9326 0.289461C17.9032 0.275601 17.8702 0.270858 17.838 0.275865C14.2673 0.867847 10.8507 1.90892 7.6612 3.31947C7.63376 3.33075 7.61049 3.34998 7.59453 3.37459C1.11139 12.7136 -0.665646 21.822 0.207245 30.816C0.209674 30.838 0.216652 30.8594 0.227755 30.8787C0.238858 30.898 0.253852 30.9148 0.271827 30.9283C4.05587 33.6278 8.27646 35.6842 12.7569 37.0114C12.7881 37.0208 12.8215 37.0208 12.8527 37.0113C12.884 37.0019 12.9115 36.9834 12.9319 36.9583C13.896 35.6949 14.7504 34.3545 15.486 32.9512C15.4962 32.932 15.5021 32.9109 15.5032 32.8893C15.5044 32.8677 15.5008 32.8461 15.4927 32.826C15.4846 32.8059 15.4722 32.7877 15.4563 32.7727C15.4404 32.7576 15.4214 32.7461 15.4006 32.7389C14.0548 32.2423 12.7508 31.6431 11.5007 30.9467C11.4782 30.9341 11.4593 30.9163 11.4456 30.8948C11.4319 30.8733 11.4239 30.8488 11.4222 30.8235C11.4205 30.7982 11.4253 30.7729 11.4361 30.7498C11.4469 30.7268 11.4634 30.7068 11.484 30.6915C11.7465 30.5017 12.009 30.3036 12.259 30.1056C12.2815 30.0878 12.3086 30.0765 12.3373 30.0729C12.366 30.0693 12.3951 30.0736 12.4215 30.0852C20.6025 33.6861 29.4627 33.6861 37.5478 30.0852C37.5743 30.0729 37.6037 30.068 37.6328 30.0713C37.6619 30.0745 37.6895 30.0857 37.7124 30.1036C37.9624 30.3036 38.2228 30.5017 38.4874 30.6915C38.5082 30.7064 38.525 30.7262 38.5361 30.7491C38.5472 30.7719 38.5524 30.7971 38.5512 30.8224C38.5499 30.8477 38.5423 30.8722 38.529 30.8939C38.5157 30.9156 38.4971 30.9337 38.4749 30.9467C37.2291 31.6489 35.9333 32.2429 34.5729 32.7369C34.552 32.7443 34.533 32.756 34.5171 32.7713C34.5012 32.7865 34.4888 32.8048 34.4807 32.8251C34.4726 32.8454 34.469 32.8671 34.4702 32.8889C34.4714 32.9106 34.4773 32.9319 34.4875 32.9512C35.2375 34.3536 36.0958 35.6886 37.0395 36.9563C37.0591 36.9823 37.0865 37.0018 37.1178 37.012C37.1491 37.0222 37.1829 37.0227 37.2145 37.0135C41.7026 35.6899 45.9301 33.6326 49.7183 30.9283C49.7368 30.9156 49.7523 30.8992 49.7638 30.8802C49.7753 30.8612 49.7825 30.84 49.785 30.8181C50.8266 20.4196 48.0392 11.3847 42.3914 3.37867C42.3776 3.35265 42.3547 3.33237 42.3269 3.32151ZM16.7089 25.3392C14.2464 25.3392 12.2152 23.157 12.2152 20.4808C12.2152 17.8026 14.2068 15.6225 16.7089 15.6225C19.2296 15.6225 21.2421 17.821 21.2025 20.4808C21.2025 23.159 19.2109 25.3392 16.7089 25.3392ZM33.323 25.3392C30.8584 25.3392 28.8293 23.157 28.8293 20.4808C28.8293 17.8026 30.8189 15.6225 33.323 15.6225C35.8437 15.6225 37.8562 17.821 37.8166 20.4808C37.8166 23.159 35.8458 25.3392 33.323 25.3392Z" fill="black"/>
</svg>
