<svg width="50" height="50" viewBox="0 0 50 50" fill="none" xmlns="http://www.w3.org/2000/svg">
<path d="M14.0625 45.3125C31.3208 45.3125 45.3125 31.3208 45.3125 14.0625V9.375C45.3125 8.1318 44.8186 6.93952 43.9396 6.06044C43.0605 5.18136 41.8682 4.6875 40.625 4.6875H37.7667C36.6917 4.6875 35.7542 5.41875 35.4938 6.4625L33.1896 15.6771C32.9604 16.5938 33.3042 17.5563 34.0583 18.1208L36.7521 20.1417C37.5354 20.7292 37.8812 21.7438 37.5437 22.6625C36.2898 26.0732 34.3096 29.1705 31.74 31.74C29.1705 34.3096 26.0732 36.2898 22.6625 37.5438C21.7437 37.8813 20.7292 37.5354 20.1417 36.7521L18.1208 34.0583C17.5562 33.3021 16.5917 32.9604 15.6771 33.1896L6.4625 35.4938C5.95561 35.6205 5.50563 35.9131 5.18404 36.3249C4.86244 36.7367 4.68767 37.2442 4.6875 37.7667V40.625C4.6875 41.8682 5.18136 43.0605 6.06044 43.9396C6.93951 44.8186 8.1318 45.3125 9.375 45.3125H14.0625Z" stroke="black" stroke-width="3.125" stroke-linecap="round" stroke-linejoin="round"/>
</svg>
