<svg width="50" height="49" viewBox="0 0 50 49" fill="none" xmlns="http://www.w3.org/2000/svg">
<path d="M24.9933 11.8246C17.8949 11.8246 12.1661 17.3897 12.1661 24.2853C12.1661 31.1809 17.8949 36.7459 24.9933 36.7459C32.0917 36.7459 37.8205 31.1809 37.8205 24.2853C37.8205 17.3897 32.0917 11.8246 24.9933 11.8246ZM24.9933 32.3838C20.4028 32.3838 16.6566 28.7446 16.6566 24.2853C16.6566 19.8259 20.4028 16.1867 24.9933 16.1867C29.5838 16.1867 33.33 19.8259 33.33 24.2853C33.33 28.7446 29.5838 32.3838 24.9933 32.3838ZM38.3458 8.41019C36.6885 8.41019 35.3501 9.71033 35.3501 11.3203C35.3501 12.9303 36.6885 14.2304 38.3458 14.2304C40.0031 14.2304 41.3415 12.9364 41.3415 11.3203C41.342 10.938 41.2649 10.5594 41.1145 10.2061C40.9641 9.8528 40.7435 9.5318 40.4652 9.26147C40.1869 8.99115 39.8565 8.77681 39.4928 8.63073C39.1291 8.48465 38.7393 8.40971 38.3458 8.41019V8.41019ZM49.9972 24.2853C49.9972 20.9316 50.0285 17.6084 49.8346 14.2608C49.6407 10.3725 48.7276 6.92171 45.8007 4.07841C42.8675 1.22904 39.3214 0.348106 35.3188 0.159768C31.8665 -0.0285701 28.4455 0.0018071 24.9995 0.0018071C21.5473 0.0018071 18.1263 -0.0285701 14.6803 0.159768C10.6776 0.348106 7.12529 1.23512 4.19837 4.07841C1.26519 6.92779 0.358344 10.3725 0.164467 14.2608C-0.0294104 17.6144 0.00186025 20.9377 0.00186025 24.2853C0.00186025 27.6328 -0.0294104 30.9621 0.164467 34.3097C0.358344 38.198 1.27144 41.6488 4.19837 44.4921C7.13154 47.3415 10.6776 48.2224 14.6803 48.4108C18.1325 48.5991 21.5535 48.5687 24.9995 48.5687C28.4518 48.5687 31.8728 48.5991 35.3188 48.4108C39.3214 48.2224 42.8738 47.3354 45.8007 44.4921C48.7339 41.6427 49.6407 38.198 49.8346 34.3097C50.0347 30.9621 49.9972 27.6389 49.9972 24.2853V24.2853ZM44.4936 38.6111C44.037 39.7168 43.4867 40.5431 42.6049 41.3936C41.723 42.2503 40.8787 42.7849 39.7405 43.2284C36.4508 44.4982 28.6394 44.2126 24.9933 44.2126C21.3471 44.2126 13.5295 44.4982 10.2398 43.2345C9.10159 42.791 8.25103 42.2564 7.37546 41.3997C6.49363 40.5431 5.94326 39.7229 5.48671 38.6172C4.18586 35.4154 4.4798 27.8272 4.4798 24.2853C4.4798 20.7433 4.18586 13.149 5.48671 9.95334C5.94326 8.84762 6.49363 8.02136 7.37546 7.1708C8.25728 6.32024 9.10159 5.77953 10.2398 5.33603C13.5295 4.07234 21.3471 4.35788 24.9933 4.35788C28.6394 4.35788 36.4571 4.07234 39.7467 5.33603C40.885 5.77953 41.7355 6.31417 42.6111 7.1708C43.4929 8.02744 44.0433 8.84762 44.4998 9.95334C45.8007 13.149 45.5068 20.7433 45.5068 24.2853C45.5068 27.8272 45.8007 35.4154 44.4936 38.6111Z" fill="black"/>
</svg>
