<svg width="50" height="47" viewBox="0 0 50 47" fill="none" xmlns="http://www.w3.org/2000/svg">
<path d="M44.4245 18.053C42.8437 18.053 41.4526 18.6932 40.4304 19.6949C36.6682 17.1443 31.5992 15.5024 25.9822 15.3269L28.9014 2.4398L38.1963 4.48439C38.1963 6.71485 40.051 8.53226 42.3273 8.53226C44.6458 8.53226 46.5111 6.66321 46.5111 4.43275C46.5111 2.20229 44.6563 0.333252 42.3273 0.333252C40.7044 0.333252 39.3028 1.29359 38.6073 2.60502L28.3428 0.374557C27.8264 0.240316 27.3206 0.601733 27.1836 1.10772L23.9799 15.3166C18.4051 15.5438 13.3888 17.1856 9.61602 19.7362C8.59379 18.6932 7.15003 18.053 5.56926 18.053C-0.290105 18.053 -2.2081 25.7564 3.15596 28.3895C2.96627 29.2053 2.88196 30.0727 2.88196 30.9401C2.88196 39.5935 12.8302 46.605 25.0443 46.605C37.311 46.605 47.2593 39.5935 47.2593 30.9401C47.2593 30.0727 47.1645 29.164 46.9326 28.3482C52.1913 25.7047 50.2522 18.053 44.4245 18.053ZM11.6605 28.9368C11.6605 26.6651 13.5152 24.8373 15.8442 24.8373C18.1205 24.8373 19.9753 26.6547 19.9753 28.9368C19.9753 31.1673 18.1205 32.9847 15.8442 32.9847C13.5258 32.995 11.6605 31.1673 11.6605 28.9368ZM34.2443 38.5918C30.4083 42.3506 19.5854 42.3506 15.7494 38.5918C15.3279 38.2304 15.3279 37.5902 15.7494 37.1771C16.1182 36.8157 16.7716 36.8157 17.1405 37.1771C20.0701 40.1201 29.7866 40.1717 32.8427 37.1771C33.2116 36.8157 33.865 36.8157 34.2338 37.1771C34.6659 37.5902 34.6659 38.2304 34.2443 38.5918ZM34.16 32.995C31.8837 32.995 30.029 31.1776 30.029 28.9472C30.029 26.6754 31.8837 24.8477 34.16 24.8477C36.4785 24.8477 38.3438 26.6651 38.3438 28.9472C38.3333 31.1673 36.4785 32.995 34.16 32.995Z" fill="black"/>
</svg>
