<svg width="50" height="49" viewBox="0 0 50 49" fill="none" xmlns="http://www.w3.org/2000/svg">
<path fill-rule="evenodd" clip-rule="evenodd" d="M25 0.345215C11.1875 0.345215 0 11.3074 0 24.8418C0 35.6815 7.15625 44.837 17.0938 48.0828C18.3438 48.2972 18.8125 47.5623 18.8125 46.9193C18.8125 46.3375 18.7812 44.4084 18.7812 42.3568C12.5 43.4897 10.875 40.8564 10.375 39.4784C10.0938 38.7742 8.875 36.6001 7.8125 36.0183C6.9375 35.559 5.6875 34.426 7.78125 34.3954C9.75 34.3648 11.1562 36.1714 11.625 36.9063C13.875 40.6114 17.4687 39.5703 18.9062 38.9273C19.125 37.335 19.7812 36.2633 20.5 35.6508C14.9375 35.0384 9.125 32.9256 9.125 23.5557C9.125 20.8917 10.0938 18.687 11.6875 16.9722C11.4375 16.3598 10.5625 13.8489 11.9375 10.4807C11.9375 10.4807 14.0312 9.83762 18.8125 12.9916C20.8125 12.4404 22.9375 12.1648 25.0625 12.1648C27.1875 12.1648 29.3125 12.4404 31.3125 12.9916C36.0938 9.807 38.1875 10.4807 38.1875 10.4807C39.5625 13.8489 38.6875 16.3598 38.4375 16.9722C40.0312 18.687 41 20.8611 41 23.5557C41 32.9562 35.1562 35.0384 29.5937 35.6508C30.5 36.4164 31.2812 37.8862 31.2812 40.1827C31.2812 43.4591 31.25 46.0925 31.25 46.9193C31.25 47.5623 31.7187 48.3278 32.9688 48.0828C37.9316 46.441 42.2441 43.3156 45.2993 39.1464C48.3545 34.9773 49.9985 29.9744 50 24.8418C50 11.3074 38.8125 0.345215 25 0.345215Z" fill="black"/>
</svg>
