<svg width="48" height="48" viewBox="0 0 48 48" fill="none" xmlns="http://www.w3.org/2000/svg">
<g filter="url(#filter0_d_2_133)">
<path d="M30.6689 20V19.9983C30.6688 18.4563 30.1341 16.9619 29.1558 15.7699C28.1775 14.5779 26.8162 13.762 25.3038 13.4611C23.7914 13.1603 22.2214 13.3931 20.8614 14.12C19.5014 14.8469 18.4355 16.0228 17.8453 17.4474C17.2551 18.8721 17.1771 20.4573 17.6246 21.933C18.0722 23.4087 19.0175 24.6835 20.2996 25.5404C21.5817 26.3973 23.1212 26.7831 24.6558 26.6321C26.1905 26.4812 27.6253 25.8028 28.7159 24.7125C29.3347 24.1144 29.8265 23.3976 30.1621 22.6051C30.4976 21.8126 30.67 20.9606 30.6689 20.1L30.6672 19.995V20H30.6689ZM34.2683 20C34.2603 22.3637 33.4335 24.6516 31.9285 26.4743C30.4236 28.2971 28.3336 29.542 26.0141 29.9973C23.6947 30.4525 21.2891 30.09 19.2069 28.9714C17.1246 27.8528 15.4943 26.0471 14.5934 23.8618C13.6925 21.6765 13.5767 19.2466 14.2657 16.9855C14.9547 14.7244 16.4058 12.772 18.3723 11.4604C20.3387 10.1488 22.6989 9.55911 25.0511 9.79173C27.4034 10.0243 29.6023 11.0649 31.2738 12.7362C32.223 13.6573 32.9773 14.7597 33.492 15.978C34.0067 17.1964 34.2713 18.5058 34.27 19.8284L34.2683 20.01V20.0017V20ZM37.0795 9.32511V9.32845C37.0797 9.88362 36.8873 10.4217 36.5353 10.8509C36.1832 11.2802 35.6932 11.5741 35.1487 11.6826C34.6043 11.791 34.039 11.7074 33.5493 11.4458C33.0596 11.1842 32.6758 10.761 32.4632 10.2481C32.2506 9.73527 32.2224 9.16457 32.3834 8.63327C32.5444 8.10196 32.8847 7.64292 33.3462 7.33437C33.8078 7.02581 34.362 6.88684 34.9145 6.94112C35.467 6.9954 35.9836 7.23959 36.3763 7.63206C36.8029 8.05033 37.0678 8.63356 37.0678 9.27845V9.32678V9.32511H37.0795ZM24.015 3.59273L22.0237 3.5794C20.8172 3.57052 19.9012 3.57052 19.2758 3.5794C18.6503 3.58829 17.8127 3.6144 16.7629 3.65772C15.788 3.69105 14.8632 3.7877 13.9583 3.94101L14.08 3.92435C13.3718 4.04099 12.7435 4.20763 12.142 4.42926L12.2136 4.40593C11.3638 4.74757 10.5909 5.25592 9.9407 5.90101C9.29046 6.5461 8.77598 7.31487 8.4276 8.16197L8.41093 8.20697C8.19704 8.79239 8.03859 9.39661 7.93768 10.0117L7.92935 10.0733C7.78113 10.9489 7.69261 11.8336 7.66439 12.7212L7.66272 12.7562C7.6194 13.8071 7.59329 14.6448 7.5844 15.2691C7.57552 15.8935 7.57552 16.8094 7.5844 18.017C7.59329 19.2246 7.59773 19.8884 7.59773 20.0083C7.59773 20.1283 7.59329 20.7921 7.5844 21.9997C7.57552 23.2072 7.57552 24.1232 7.5844 24.7475C7.59329 25.3719 7.6194 26.2095 7.66272 27.2605C7.69605 28.2353 7.7927 29.1601 7.94601 30.065L7.92935 29.9433C8.04599 30.6516 8.21263 31.2798 8.43426 31.8814L8.41093 31.8097C8.75256 32.6595 9.26092 33.4324 9.90601 34.0826C10.5511 34.7329 11.3199 35.2474 12.167 35.5957L12.212 35.6124C12.7419 35.8107 13.3701 35.9773 14.0167 36.0857L14.0783 36.094C14.8599 36.2306 15.7847 36.3273 16.7245 36.3589L16.7595 36.3606C17.8105 36.4039 18.6481 36.43 19.2725 36.4389C19.8968 36.4478 20.8128 36.4478 22.0203 36.4389L24 36.3989L25.9913 36.4123C27.1978 36.4212 28.1138 36.4212 28.7392 36.4123C29.3647 36.4034 30.2023 36.3773 31.2521 36.3339C32.227 36.3006 33.1518 36.204 34.0567 36.0507L33.935 36.0673C34.6432 35.9507 35.2715 35.784 35.873 35.5624L35.8014 35.5857C36.6512 35.2441 37.4241 34.7358 38.0743 34.0907C38.7245 33.4456 39.239 32.6768 39.5874 31.8297L39.6041 31.7847C39.8024 31.2548 39.969 30.6266 40.0773 29.98L40.0857 29.9183C40.2223 29.1368 40.3189 28.212 40.3506 27.2721L40.3523 27.2371C40.3956 26.1862 40.4217 25.3486 40.4306 24.7242C40.4395 24.0999 40.4395 23.1839 40.4306 21.9763C40.4217 20.7688 40.4173 20.105 40.4173 19.985C40.4173 19.865 40.4217 19.2012 40.4306 17.9937C40.4395 16.7861 40.4395 15.8701 40.4306 15.2458C40.4217 14.6215 40.3956 13.7838 40.3523 12.7329C40.3189 11.758 40.2223 10.8332 40.069 9.92834L40.0857 10.05C39.98 9.38928 39.8109 8.74028 39.5807 8.11198L39.6041 8.18364C39.2624 7.33379 38.7541 6.56095 38.109 5.91071C37.4639 5.26047 36.6951 4.74598 35.848 4.3976L35.803 4.38094C35.2176 4.16705 34.6134 4.0086 33.9983 3.90768L33.9367 3.89935C33.0616 3.75121 32.1775 3.66269 31.2905 3.63439L31.2555 3.63273C30.2045 3.5894 29.3669 3.5633 28.7425 3.55441C28.1182 3.54552 27.2022 3.54552 25.9947 3.55441L24.015 3.59273ZM44 20C44 23.9749 43.9556 26.7261 43.8667 28.2536C43.9455 29.8017 43.6981 31.349 43.1406 32.7953C42.5832 34.2417 41.728 35.5547 40.6306 36.6494C39.5333 37.7442 38.2181 38.5961 36.7704 39.15C35.3227 39.704 33.7748 39.9476 32.227 39.865L32.2536 39.8667C30.7261 39.9556 27.9749 40 24 40C20.0251 40 17.2739 39.9556 15.7464 39.8667C14.1983 39.9455 12.651 39.6981 11.2047 39.1406C9.75834 38.5832 8.44528 37.728 7.35056 36.6306C6.25585 35.5333 5.40392 34.2181 4.84998 32.7704C4.29603 31.3227 4.05244 29.7748 4.13498 28.227L4.13331 28.2536C4.04444 26.7261 4 23.9749 4 20C4 16.0251 4.04444 13.2739 4.13331 11.7464C4.05454 10.1983 4.30191 8.65101 4.85938 7.20468C5.41685 5.75834 6.27198 4.44528 7.36937 3.35056C8.46675 2.25585 9.7819 1.40392 11.2296 0.849976C12.6773 0.296032 14.2252 0.0524378 15.773 0.134978L15.7464 0.133311C17.2739 0.044437 20.0251 0 24 0C27.9749 0 30.7261 0.044437 32.2536 0.133311C33.8017 0.0545433 35.349 0.301909 36.7953 0.859378C38.2417 1.41685 39.5547 2.27198 40.6494 3.36937C41.7441 4.46675 42.5961 5.7819 43.15 7.22958C43.704 8.67727 43.9476 10.2252 43.865 11.773L43.8667 11.7464C43.9556 13.2728 44 16.024 44 20Z" fill="black"/>
</g>
<defs>
<filter id="filter0_d_2_133" x="0" y="0" width="48" height="48" filterUnits="userSpaceOnUse" color-interpolation-filters="sRGB">
<feFlood flood-opacity="0" result="BackgroundImageFix"/>
<feColorMatrix in="SourceAlpha" type="matrix" values="0 0 0 0 0 0 0 0 0 0 0 0 0 0 0 0 0 0 127 0" result="hardAlpha"/>
<feOffset dy="4"/>
<feGaussianBlur stdDeviation="2"/>
<feComposite in2="hardAlpha" operator="out"/>
<feColorMatrix type="matrix" values="0 0 0 0 0 0 0 0 0 0 0 0 0 0 0 0 0 0 0.25 0"/>
<feBlend mode="normal" in2="BackgroundImageFix" result="effect1_dropShadow_2_133"/>
<feBlend mode="normal" in="SourceGraphic" in2="effect1_dropShadow_2_133" result="shape"/>
</filter>
</defs>
</svg>
