<svg width="50" height="59" viewBox="0 0 50 59" fill="none" xmlns="http://www.w3.org/2000/svg">
<path d="M15.9953 44.6726H19.9941C19.9941 47.2482 21.0474 49.7183 22.9222 51.5396C24.797 53.3608 27.3398 54.384 29.9911 54.384C32.6425 54.384 35.1853 53.3608 37.0601 51.5396C38.9349 49.7183 39.9882 47.2482 39.9882 44.6726H43.987C43.987 48.2785 42.5124 51.7366 39.8877 54.2864C37.263 56.8361 33.7031 58.2686 29.9911 58.2686C26.2792 58.2686 22.7193 56.8361 20.0946 54.2864C17.4699 51.7366 15.9953 48.2785 15.9953 44.6726Z" fill="black"/>
<path d="M5.99822 31.0767C7.03119 31.0731 8.04493 30.8051 8.93735 30.2998C9.4764 31.1303 10.2228 31.8151 11.1071 32.2905C11.9915 32.7659 12.9851 33.0165 13.9959 33.019C15.0288 33.0154 16.0426 32.7474 16.935 32.2421C17.6624 33.354 18.7563 34.1936 20.0381 34.6239C21.3199 35.0543 22.714 35.0499 23.9929 34.6116V44.6727C23.9929 46.218 24.6248 47.7001 25.7497 48.7929C26.8746 49.8856 28.4003 50.4995 29.9911 50.4995C31.5819 50.4995 33.1076 49.8856 34.2325 48.7929C35.3574 47.7001 35.9893 46.218 35.9893 44.6727V23.1133L40.448 26.0656C41.4701 26.8051 42.7126 27.2006 43.987 27.1921C45.1767 27.195 46.3404 26.8541 47.3301 26.2128C48.3198 25.5715 49.0909 24.6588 49.5453 23.5907C49.9997 22.5226 50.1168 21.3474 49.8818 20.2145C49.6469 19.0815 49.0704 18.0421 48.2257 17.2282L32.2305 3.04957C29.9659 1.08064 27.032 -0.00544805 23.9929 0.00019002H13.9959C10.2839 0.00019002 6.72402 1.43262 4.09929 3.98236C1.47456 6.5321 6.91602e-07 9.99029 6.91602e-07 13.5962V25.2499C6.91602e-07 26.7952 0.631954 28.2773 1.75684 29.3701C2.88172 30.4628 4.4074 31.0767 5.99822 31.0767V31.0767ZM3.99882 13.5962C3.99882 11.0205 5.05207 8.5504 6.92688 6.72916C8.80169 4.90792 11.3445 3.88475 13.9959 3.88475H23.9929C26.0139 3.86102 27.975 4.55125 29.5113 5.82703L45.4065 20.0057C45.7759 20.3675 45.9842 20.8557 45.9864 21.3653C45.9864 21.726 45.883 22.0796 45.6878 22.3864C45.4926 22.6932 45.2132 22.9412 44.8811 23.1025C44.549 23.2638 44.1772 23.3321 43.8074 23.2997C43.4376 23.2673 43.0844 23.1355 42.7873 22.9191L31.9905 15.7327V44.6727C31.9905 45.1878 31.7799 45.6818 31.4049 46.0461C31.0299 46.4103 30.5214 46.6149 29.9911 46.6149C29.4608 46.6149 28.9523 46.4103 28.5773 46.0461C28.2024 45.6818 27.9917 45.1878 27.9917 44.6727V23.3076H23.9929V29.1344C23.9929 29.6495 23.7822 30.1436 23.4073 30.5078C23.0323 30.8721 22.5238 31.0767 21.9935 31.0767C21.4632 31.0767 20.9547 30.8721 20.5797 30.5078C20.2047 30.1436 19.9941 29.6495 19.9941 29.1344V23.3076H15.9953V27.1921C15.9953 27.7073 15.7846 28.2013 15.4097 28.5655C15.0347 28.9298 14.5261 29.1344 13.9959 29.1344C13.4656 29.1344 12.957 28.9298 12.5821 28.5655C12.2071 28.2013 11.9964 27.7073 11.9964 27.1921V23.3076H7.99763V25.2499C7.99763 25.765 7.78698 26.259 7.41202 26.6233C7.03706 26.9875 6.5285 27.1921 5.99822 27.1921C5.46795 27.1921 4.95939 26.9875 4.58443 26.6233C4.20947 26.259 3.99882 25.765 3.99882 25.2499V13.5962Z" fill="black"/>
</svg>
