<svg width="116" height="116" viewBox="0 0 116 116" fill="none" xmlns="http://www.w3.org/2000/svg">
<path d="M35.1111 52.9363C35.1111 47.9668 36.8472 43.7507 40.3193 40.2882C43.7898 36.8274 48.0167 35.097 53 35.097V30C49.8056 30 46.813 30.6048 44.0223 31.8145C41.2334 33.0259 38.8056 34.662 36.739 36.7229C34.6741 38.782 33.0343 41.2031 31.8196 43.986C30.6065 46.7673 30 49.7507 30 52.9363H35.1111ZM45.3333 52.9363C45.3333 50.8126 46.0787 49.0074 47.5694 47.5208C49.0602 46.0342 50.8704 45.2909 53 45.2909V40.1939C49.4648 40.1939 46.451 41.4359 43.9584 43.9198C41.4676 46.4054 40.2222 49.4109 40.2222 52.9363H45.3333ZM32.6833 76C38.1778 76 43.5334 74.7784 48.7501 72.3353C53.9686 69.8938 58.5899 66.6658 62.614 62.6511C66.6399 58.6381 69.8769 54.0296 72.3251 48.8256C74.775 43.6233 76 38.2825 76 32.8033C76 32.0388 75.7444 31.4017 75.2333 30.892C74.7222 30.3823 74.0833 30.1274 73.3167 30.1274H62.9667C62.3704 30.1274 61.838 30.3186 61.3694 30.7008C60.9009 31.0831 60.6241 31.5716 60.5389 32.1662L58.8778 41.0859C58.7926 41.6805 58.8028 42.2216 58.9084 42.7093C59.0158 43.1986 59.2611 43.6343 59.6444 44.0166L65.7778 50.2604C63.9889 53.3186 61.7528 56.1856 59.0694 58.8615C56.3861 61.5374 53.4259 63.8523 50.1889 65.8061L44.1833 59.8172C43.8 59.4349 43.2991 59.1478 42.6807 58.9558C42.0639 58.7655 41.4574 58.7128 40.8611 58.7978L32.0444 60.5817C31.4481 60.7091 30.9583 60.9954 30.575 61.4406C30.1917 61.8874 30 62.4081 30 63.0028V73.3241C30 74.0886 30.2556 74.7258 30.7667 75.2355C31.2778 75.7452 31.9167 76 32.6833 76Z" fill="black"/>
<g filter="url(#filter0_d_40_6)">
<circle cx="53" cy="53" r="47" stroke="black" stroke-width="6" shape-rendering="crispEdges"/>
</g>
<defs>
<filter id="filter0_d_40_6" x="0" y="0" width="116" height="116" filterUnits="userSpaceOnUse" color-interpolation-filters="sRGB">
<feFlood flood-opacity="0" result="BackgroundImageFix"/>
<feColorMatrix in="SourceAlpha" type="matrix" values="0 0 0 0 0 0 0 0 0 0 0 0 0 0 0 0 0 0 127 0" result="hardAlpha"/>
<feOffset dx="5" dy="5"/>
<feGaussianBlur stdDeviation="4"/>
<feComposite in2="hardAlpha" operator="out"/>
<feColorMatrix type="matrix" values="0 0 0 0 0 0 0 0 0 0 0 0 0 0 0 0 0 0 0.7 0"/>
<feBlend mode="normal" in2="BackgroundImageFix" result="effect1_dropShadow_40_6"/>
<feBlend mode="normal" in="SourceGraphic" in2="effect1_dropShadow_40_6" result="shape"/>
</filter>
</defs>
</svg>
