<svg width="50" height="49" viewBox="0 0 50 49" fill="none" xmlns="http://www.w3.org/2000/svg">
<path d="M12.69 47C32.3692 47 48.3235 31.5015 48.3235 12.3846V7.19231C48.3235 5.81522 47.7604 4.49454 46.758 3.52079C45.7556 2.54705 44.3961 2 42.9785 2H39.7192C38.4934 2 37.4244 2.81 37.1275 3.96615L34.5001 14.1731C34.2388 15.1885 34.6308 16.2546 35.4907 16.88L38.5623 19.1185C39.4555 19.7692 39.8499 20.8931 39.465 21.9108C38.0353 25.6887 35.7772 29.1196 32.8472 31.9659C29.9173 34.8121 26.3855 37.0057 22.4964 38.3946C21.4488 38.7685 20.2919 38.3854 19.6219 37.5177L17.3176 34.5338C16.6739 33.6962 15.574 33.3177 14.5311 33.5715L4.02398 36.1238C3.44599 36.2643 2.93289 36.5883 2.56619 37.0445C2.19948 37.5007 2.0002 38.0628 2 38.6415V41.8077C2 43.1848 2.56313 44.5055 3.56552 45.4792C4.56791 46.453 5.92743 47 7.34502 47H12.69Z" stroke="black" stroke-width="3.125" stroke-linecap="round" stroke-linejoin="round"/>
</svg>
