<svg width="50" height="51" viewBox="0 0 50 51" fill="none" xmlns="http://www.w3.org/2000/svg">
<path d="M33.3361 25.4677V25.4656C33.336 23.54 32.6676 21.674 31.4448 20.1856C30.2219 18.6971 28.5203 17.6782 26.6297 17.3025C24.7392 16.9268 22.7768 17.2176 21.0768 18.1252C19.3768 19.0329 18.0444 20.5013 17.3066 22.2803C16.5689 24.0592 16.4714 26.0387 17.0308 27.8814C17.5902 29.7242 18.7719 31.3161 20.3745 32.3861C21.9771 33.4561 23.9015 33.9378 25.8198 33.7493C27.7381 33.5608 29.5316 32.7137 30.8948 31.3523C31.6683 30.6054 32.2831 29.7104 32.7026 28.7208C33.122 27.7312 33.3375 26.6672 33.3361 25.5926L33.334 25.4615V25.4677H33.3361ZM37.8354 25.4677C37.8254 28.4193 36.7918 31.2762 34.9107 33.5523C33.0295 35.8284 30.417 37.383 27.5177 37.9515C24.6183 38.52 21.6114 38.0673 19.0086 36.6704C16.4058 35.2736 14.3679 33.0189 13.2418 30.2901C12.1156 27.5612 11.9709 24.5269 12.8321 21.7035C13.6933 18.88 15.5073 16.4419 17.9654 14.8041C20.4234 13.1663 23.3736 12.43 26.3139 12.7205C29.2542 13.011 32.0029 14.3103 34.0922 16.3973C35.2787 17.5474 36.2217 18.9241 36.865 20.4454C37.5084 21.9668 37.8391 23.6018 37.8374 25.2534L37.8354 25.4802V25.4698V25.4677ZM41.3494 12.1378V12.142C41.3496 12.8352 41.1092 13.5071 40.6691 14.0431C40.229 14.5792 39.6165 14.9462 38.9359 15.0816C38.2553 15.2171 37.5488 15.1126 36.9367 14.786C36.3246 14.4593 35.8447 13.9308 35.579 13.2904C35.3133 12.65 35.278 11.9374 35.4793 11.2739C35.6806 10.6104 36.1059 10.0372 36.6828 9.65194C37.2597 9.26665 37.9525 9.09311 38.6431 9.16089C39.3338 9.22868 39.9795 9.53359 40.4703 10.0237C41.0036 10.546 41.3348 11.2743 41.3348 12.0796V12.1399V12.1378H41.3494ZM25.0187 4.97971L22.5296 4.96306C21.0215 4.95197 19.8765 4.95197 19.0947 4.96306C18.3129 4.97416 17.2659 5.00676 15.9536 5.06086C14.735 5.10248 13.579 5.22317 12.4479 5.41461L12.6 5.3938C11.7147 5.53946 10.9294 5.74754 10.1775 6.0243L10.267 5.99516C9.20473 6.42177 8.23868 7.05655 7.42588 7.86209C6.61308 8.66762 5.96997 9.62759 5.53449 10.6854L5.51366 10.7416C5.2463 11.4726 5.04824 12.2271 4.9221 12.9951L4.91168 13.0721C4.72641 14.1655 4.61576 15.2702 4.58049 16.3786L4.5784 16.4223C4.52425 17.7346 4.49161 18.7806 4.4805 19.5602C4.46939 20.3398 4.46939 21.4836 4.4805 22.9915C4.49161 24.4994 4.49717 25.3283 4.49717 25.4781C4.49717 25.6279 4.49161 26.4568 4.4805 27.9647C4.46939 29.4726 4.46939 30.6164 4.4805 31.396C4.49161 32.1757 4.52425 33.2216 4.5784 34.534C4.62006 35.7513 4.74088 36.9061 4.93251 38.036L4.91168 37.8841C5.05749 38.7685 5.26579 39.553 5.54283 40.3041L5.51366 40.2147C5.94071 41.2759 6.57615 42.2409 7.38251 43.0529C8.18887 43.8649 9.14983 44.5073 10.2087 44.9423L10.265 44.9632C10.9273 45.2108 11.7126 45.4189 12.5208 45.5541L12.5979 45.5645C13.5748 45.7352 14.7309 45.8558 15.9057 45.8954L15.9494 45.8975C17.2631 45.9516 18.3101 45.9842 19.0906 45.9953C19.871 46.0064 21.0159 46.0064 22.5254 45.9953L25 45.9453L27.4892 45.962C28.9972 45.9731 30.1422 45.9731 30.924 45.962C31.7058 45.9509 32.7529 45.9183 34.0652 45.8642C35.2837 45.8225 36.4398 45.7019 37.5708 45.5104L37.4188 45.5312C38.304 45.3856 39.0893 45.1775 39.8413 44.9007L39.7517 44.9299C40.814 44.5033 41.7801 43.8685 42.5929 43.0629C43.4057 42.2574 44.0488 41.2974 44.4842 40.2396L44.5051 40.1835C44.753 39.5217 44.9613 38.7373 45.0966 37.9299L45.1071 37.8529C45.2779 36.877 45.3987 35.7221 45.4383 34.5485L45.4403 34.5048C45.4945 33.1925 45.5271 32.1465 45.5382 31.3669C45.5494 30.5873 45.5494 29.4435 45.5382 27.9356C45.5271 26.4277 45.5216 25.5988 45.5216 25.449C45.5216 25.2992 45.5271 24.4703 45.5382 22.9624C45.5494 21.4545 45.5494 20.3107 45.5382 19.5311C45.5271 18.7514 45.4945 17.7055 45.4403 16.3931C45.3987 15.1759 45.2779 14.021 45.0862 12.8911L45.1071 13.043C44.9749 12.2179 44.7636 11.4075 44.4759 10.623L44.5051 10.7124C44.078 9.65122 43.4426 8.68617 42.6362 7.8742C41.8299 7.06223 40.8689 6.41979 39.81 5.98476L39.7538 5.96395C39.022 5.69686 38.2667 5.49901 37.4979 5.37299L37.4208 5.36259C36.327 5.1776 35.2219 5.06706 34.1131 5.03173L34.0693 5.02965C32.7556 4.97555 31.7086 4.94295 30.9282 4.93185C30.1478 4.92075 29.0028 4.92075 27.4933 4.93185L25.0187 4.97971ZM50 25.4677C50 30.4312 49.9445 33.8667 49.8334 35.7741C49.9318 37.7072 49.6226 39.6394 48.9258 41.4454C48.2289 43.2515 47.16 44.8911 45.7883 46.2581C44.4166 47.6251 42.7726 48.6889 40.963 49.3806C39.1534 50.0724 37.2185 50.3765 35.2837 50.2735L35.317 50.2756C33.4076 50.3865 29.9686 50.442 25 50.442C20.0314 50.442 16.5924 50.3865 14.683 50.2756C12.7479 50.3739 10.8138 50.065 9.00584 49.3689C7.19793 48.6728 5.5566 47.605 4.1882 46.2346C2.81981 44.8643 1.7549 43.2221 1.06247 41.4143C0.37004 39.6066 0.0655472 37.6737 0.168722 35.7408L0.166639 35.7741C0.0555463 33.8667 0 30.4312 0 25.4677C0 20.5042 0.0555463 17.0687 0.166639 15.1613C0.0681792 13.2282 0.377386 11.2961 1.07422 9.49C1.77106 7.68394 2.83998 6.04429 4.21171 4.67731C5.58344 3.31032 7.22737 2.2465 9.03698 1.55479C10.8466 0.863068 12.7815 0.558888 14.7163 0.661957L14.683 0.659876C16.5924 0.548897 20.0314 0.493408 25 0.493408C29.9686 0.493408 33.4076 0.548897 35.317 0.659876C37.2521 0.561517 39.1862 0.870407 40.9942 1.56653C42.8021 2.26265 44.4434 3.33047 45.8118 4.70079C47.1802 6.07111 48.2451 7.71335 48.9375 9.5211C49.63 11.3288 49.9345 13.2618 49.8313 15.1946L49.8334 15.1613C49.9445 17.0673 50 20.5028 50 25.4677Z" fill="#F57BA7"/>
</svg>
