<svg width="50" height="50" viewBox="0 0 50 50" fill="none" xmlns="http://www.w3.org/2000/svg">
<path d="M46.2607 11.6553C38.7813 0.356804 23.5109 -3.00221 11.6685 4.02119C0.137786 11.0446 -3.60191 26.3129 3.87748 37.6114L4.50076 38.5275L2.00763 47.6884L11.3569 45.2455L12.2918 45.8562C16.3431 47.9938 20.7061 49.2152 25.0691 49.2152C29.7437 49.2152 34.4183 47.9938 38.4697 45.5509C50.0004 38.2221 53.4284 23.2592 46.2607 11.6553ZM39.7162 35.1684C38.4697 37.0006 36.9115 38.2221 34.73 38.5275C33.4834 38.5275 31.9252 39.1382 25.6924 36.6953C20.3945 34.2523 16.0315 30.2826 12.9151 25.7021C11.0452 23.5646 10.1103 20.8163 9.79867 18.068C9.79867 15.6251 10.7336 13.4875 12.2918 11.9607C12.9151 11.35 13.5384 11.0446 14.1616 11.0446H15.7198C16.3431 11.0446 16.9664 11.0446 17.2781 12.2661C17.9013 13.7929 19.4595 17.4573 19.4595 17.7626C19.7712 18.068 19.7712 18.6787 19.4595 18.9841C19.7712 19.5948 19.4595 20.2055 19.1479 20.5109C18.8363 20.8163 18.5246 21.427 18.213 21.7324C17.5897 22.0377 17.2781 22.6485 17.5897 23.2592C18.8363 25.0914 20.3945 26.9236 21.9527 28.4504C23.8225 29.9772 25.6924 31.1987 27.8739 32.1148C28.4971 32.4202 29.1204 32.4202 29.4321 31.8094C29.7437 31.1987 31.3019 29.6719 31.9252 29.0611C32.5485 28.4504 32.8601 28.4504 33.4834 28.7558L38.4697 31.1987C39.0929 31.5041 39.7162 31.8094 40.0279 32.1148C40.3395 33.0309 40.3395 34.2523 39.7162 35.1684Z" fill="black"/>
</svg>
