<svg width="51" height="55" viewBox="0 0 51 55" fill="none" xmlns="http://www.w3.org/2000/svg">
<path d="M44.3939 5.72471C43.0784 4.51462 37.7607 0.664063 25.96 0.687892C25.96 0.687892 12.0434 -0.0662017 5.30838 6.26773C1.56417 10.1037 0.271797 15.7048 0.172145 22.6313C0.0724934 29.5579 -0.0191664 42.5355 12.3701 45.976L12.3804 45.976L12.4047 51.3499C12.4047 51.3499 12.3363 53.5271 13.7601 53.9553C15.4729 54.4859 16.4713 52.8235 18.0971 51.0321C18.9867 50.0474 20.2131 48.6022 21.1431 47.5027C29.6118 48.1668 36.0987 46.4795 36.8385 46.2352C38.5442 45.6619 48.205 44.3499 49.6868 31.3634C51.2276 17.9599 48.7638 9.51887 44.3939 5.72471ZM45.9839 30.4082C44.7252 41.2478 36.8936 41.9856 35.455 42.4635C34.8384 42.6654 29.1328 44.1393 21.9528 43.7168C21.9528 43.7168 16.6404 50.2812 14.9831 51.9895C14.441 52.5449 13.8434 52.4967 13.8467 51.4031C13.842 50.6845 13.8305 42.4776 13.8305 42.4776C13.8202 42.4777 13.8202 42.4777 13.8305 42.4776C3.32928 39.6082 3.87609 28.5544 3.95221 22.7737C4.02834 16.9929 5.07907 12.2474 8.25066 9.04C13.9523 3.74379 25.768 4.44891 25.768 4.44891C35.746 4.42639 40.5434 7.43669 41.662 8.45016C45.3585 11.6133 47.2816 19.2247 45.9839 30.4082ZM31.617 22.0854C31.6639 22.9808 30.336 23.0518 30.2891 22.1564C30.1611 19.866 29.0933 18.7584 26.9095 18.6475C26.0237 18.6011 26.0974 17.2571 26.973 17.3036C29.8469 17.4413 31.4536 19.0974 31.617 22.0854ZM33.7148 23.2488C33.7894 18.8324 31.0385 15.3923 25.8566 15.0403C24.981 14.9835 25.065 13.6394 25.9407 13.6962C31.9157 14.0952 35.1242 18.2302 35.0433 23.2715C35.0388 24.1672 33.6999 24.1342 33.7148 23.2488ZM38.5634 24.6132C38.5794 25.5088 37.2409 25.5278 37.2351 24.6322C37.1188 16.1448 31.4978 11.5567 24.7118 11.5483C23.8365 11.5435 23.8279 10.2104 24.7031 10.2048C32.2924 10.2081 38.4325 15.4697 38.5634 24.6132ZM37.4655 34.8373L37.4656 34.8581C36.3662 36.844 34.3003 39.0444 32.1541 38.3605L32.1333 38.3293C29.9566 37.7289 24.8219 35.0957 21.5719 32.5129C19.8952 31.1905 18.3612 29.6277 17.1776 28.1252C16.1084 26.7885 15.0273 25.202 13.9749 23.2924C11.7559 19.297 11.2604 17.5088 11.2604 17.5088C10.5566 15.347 12.6952 13.2295 14.6547 12.092L14.6753 12.0919C15.6194 11.5859 16.5266 11.7467 17.1389 12.4822C17.1389 12.4822 18.4256 14.0154 18.9762 14.7721C19.4956 15.477 20.1928 16.6077 20.5573 17.2407C21.1927 18.3718 20.8089 19.5304 20.1941 20.0134L18.9649 21.0211C18.3401 21.5355 18.4285 22.4827 18.4285 22.4827C18.4285 22.4827 20.3064 29.4798 27.1653 31.2063C27.1653 31.2063 28.1029 31.2835 28.6033 30.645L29.5838 29.3889C30.0535 28.761 31.1939 28.3579 32.3203 28.986C33.8396 29.8406 35.7737 31.1717 37.0584 32.382C37.783 32.971 37.9536 33.876 37.4655 34.8373Z" fill="#F57BA7"/>
</svg>
