<svg width="51" height="53" viewBox="0 0 51 53" fill="none" xmlns="http://www.w3.org/2000/svg">
<g filter="url(#filter0_d_2_124)">
<path d="M40.5151 4.18763C39.4627 3.21857 35.2086 0.134952 25.768 0.154034C25.768 0.154034 14.6347 -0.449861 9.2467 4.62249C6.25134 7.6944 5.21744 12.1799 5.13772 17.7269C5.05799 23.2738 4.98467 33.6665 14.8961 36.4218L14.9044 36.4218L14.9237 40.7253C14.9237 40.7253 14.869 42.4689 16.0081 42.8118C17.3783 43.2367 18.1771 41.9054 19.4777 40.4708C20.1893 39.6822 21.1705 38.5249 21.9145 37.6444C28.6895 38.1763 33.8789 36.825 34.4708 36.6294C35.8353 36.1702 43.564 35.1196 44.7494 24.7197C45.9821 13.9859 44.011 7.22609 40.5151 4.18763ZM41.7871 23.9548C40.7801 32.6354 34.5149 33.2262 33.364 33.6089C32.8708 33.7706 28.3063 34.9509 22.5623 34.6126C22.5623 34.6126 18.3123 39.8695 16.9865 41.2375C16.5528 41.6824 16.0747 41.6437 16.0773 40.768C16.0736 40.1925 16.0644 33.6202 16.0644 33.6202C16.0562 33.6203 16.0562 33.6203 16.0644 33.6202C7.66342 31.3223 8.10087 22.4702 8.16177 17.8408C8.22267 13.2115 9.06326 9.41112 11.6005 6.84259C16.1618 2.60127 25.6144 3.16595 25.6144 3.16595C33.5968 3.14791 37.4347 5.55863 38.3296 6.37023C41.2868 8.90339 42.8253 14.9987 41.7871 23.9548ZM30.2936 17.2897C30.3311 18.0067 29.2688 18.0636 29.2312 17.3465C29.1289 15.5123 28.2747 14.6253 26.5276 14.5365C25.8189 14.4994 25.8779 13.4231 26.5784 13.4603C28.8775 13.5706 30.1629 14.8968 30.2936 17.2897ZM31.9719 18.2213C32.0315 14.6846 29.8308 11.9297 25.6853 11.6478C24.9848 11.6022 25.052 10.5259 25.7525 10.5714C30.5326 10.8909 33.0994 14.2023 33.0347 18.2395C33.031 18.9568 31.9599 18.9303 31.9719 18.2213ZM35.8507 19.314C35.8635 20.0312 34.7927 20.0464 34.7881 19.3292C34.695 12.5322 30.1983 8.85802 24.7694 8.85127C24.0692 8.84744 24.0623 7.7799 24.7625 7.77539C30.8339 7.778 35.746 11.9917 35.8507 19.314ZM34.9724 27.5017L34.9725 27.5183C34.093 29.1087 32.4402 30.8708 30.7232 30.3231L30.7066 30.2982C28.9653 29.8173 24.8575 27.7086 22.2575 25.6402C20.9162 24.5812 19.6889 23.3297 18.7421 22.1265C17.8867 21.056 17.0218 19.7855 16.18 18.2563C14.4047 15.0566 14.0084 13.6246 14.0084 13.6246C13.4453 11.8934 15.1561 10.1976 16.7237 9.28674L16.7402 9.28663C17.4955 8.88142 18.2213 9.0102 18.7111 9.59922C18.7111 9.59922 19.7405 10.827 20.181 11.433C20.5965 11.9975 21.1543 12.903 21.4458 13.4099C21.9542 14.3157 21.6471 15.2435 21.1553 15.6303L20.1719 16.4374C19.672 16.8493 19.7428 17.6078 19.7428 17.6078C19.7428 17.6078 21.2451 23.2113 26.7323 24.5938C26.7323 24.5938 27.4823 24.6557 27.8827 24.1444L28.6671 23.1385C29.0428 22.6356 29.9551 22.3128 30.8563 22.8158C32.0717 23.5002 33.619 24.5662 34.6467 25.5354C35.2264 26.0071 35.3629 26.7318 34.9724 27.5017Z" fill="white"/>
</g>
<defs>
<filter id="filter0_d_2_124" x="0.123627" y="0.131683" width="49.9945" height="52.7604" filterUnits="userSpaceOnUse" color-interpolation-filters="sRGB">
<feFlood flood-opacity="0" result="BackgroundImageFix"/>
<feColorMatrix in="SourceAlpha" type="matrix" values="0 0 0 0 0 0 0 0 0 0 0 0 0 0 0 0 0 0 127 0" result="hardAlpha"/>
<feOffset dy="5"/>
<feGaussianBlur stdDeviation="2.5"/>
<feComposite in2="hardAlpha" operator="out"/>
<feColorMatrix type="matrix" values="0 0 0 0 0 0 0 0 0 0 0 0 0 0 0 0 0 0 0.5 0"/>
<feBlend mode="normal" in2="BackgroundImageFix" result="effect1_dropShadow_2_124"/>
<feBlend mode="normal" in="SourceGraphic" in2="effect1_dropShadow_2_124" result="shape"/>
</filter>
</defs>
</svg>
