<svg width="116" height="116" viewBox="0 0 116 116" fill="none" xmlns="http://www.w3.org/2000/svg">
<g filter="url(#filter0_d_19_285)">
<path fill-rule="evenodd" clip-rule="evenodd" d="M96.75 53C96.75 41.3968 92.1406 30.2688 83.9359 22.0641C75.7312 13.8594 64.6032 9.25 53 9.25C41.3968 9.25 30.2688 13.8594 22.0641 22.0641C13.8594 30.2688 9.25 41.3968 9.25 53C9.25 64.6032 13.8594 75.7312 22.0641 83.9359C30.2688 92.1406 41.3968 96.75 53 96.75C64.6032 96.75 75.7312 92.1406 83.9359 83.9359C92.1406 75.7312 96.75 64.6032 96.75 53V53ZM3 53C3 39.7392 8.26784 27.0215 17.6447 17.6447C27.0215 8.26784 39.7392 3 53 3C66.2608 3 78.9785 8.26784 88.3553 17.6447C97.7322 27.0215 103 39.7392 103 53C103 66.2608 97.7322 78.9785 88.3553 88.3553C78.9785 97.7322 66.2608 103 53 103C39.7392 103 27.0215 97.7322 17.6447 88.3553C8.26784 78.9785 3 66.2608 3 53V53ZM49.875 74.875C49.875 75.7038 50.2042 76.4987 50.7903 77.0847C51.3763 77.6708 52.1712 78 53 78C53.8288 78 54.6237 77.6708 55.2097 77.0847C55.7958 76.4987 56.125 75.7038 56.125 74.875L56.125 38.6687L69.5375 52.0875C70.1243 52.6743 70.9202 53.0039 71.75 53.0039C72.5798 53.0039 73.3757 52.6743 73.9625 52.0875C74.5493 51.5007 74.8789 50.7048 74.8789 49.875C74.8789 49.0452 74.5493 48.2493 73.9625 47.6625L55.2125 28.9125C54.9222 28.6215 54.5774 28.3906 54.1977 28.233C53.8181 28.0755 53.411 27.9944 53 27.9944C52.589 27.9944 52.1819 28.0755 51.8023 28.233C51.4226 28.3906 51.0778 28.6215 50.7875 28.9125L32.0375 47.6625C31.4507 48.2493 31.1211 49.0452 31.1211 49.875C31.1211 50.7048 31.4507 51.5007 32.0375 52.0875C32.6243 52.6743 33.4202 53.0039 34.25 53.0039C35.0798 53.0039 35.8757 52.6743 36.4625 52.0875L49.875 38.6687L49.875 74.875Z" fill="black"/>
</g>
<defs>
<filter id="filter0_d_19_285" x="0" y="0" width="116" height="116" filterUnits="userSpaceOnUse" color-interpolation-filters="sRGB">
<feFlood flood-opacity="0" result="BackgroundImageFix"/>
<feColorMatrix in="SourceAlpha" type="matrix" values="0 0 0 0 0 0 0 0 0 0 0 0 0 0 0 0 0 0 127 0" result="hardAlpha"/>
<feOffset dx="5" dy="5"/>
<feGaussianBlur stdDeviation="4"/>
<feComposite in2="hardAlpha" operator="out"/>
<feColorMatrix type="matrix" values="0 0 0 0 0 0 0 0 0 0 0 0 0 0 0 0 0 0 0.7 0"/>
<feBlend mode="normal" in2="BackgroundImageFix" result="effect1_dropShadow_19_285"/>
<feBlend mode="normal" in="SourceGraphic" in2="effect1_dropShadow_19_285" result="shape"/>
</filter>
</defs>
</svg>
