<svg width="50" height="50" viewBox="0 0 50 50" fill="none" xmlns="http://www.w3.org/2000/svg">
<path d="M25 0.357178C11.1927 0.357178 0 11.3245 0 24.8537C0 38.3829 11.1927 49.3503 25 49.3503C38.8073 49.3503 50 38.3829 50 24.8537C50 11.3245 38.8073 0.357178 25 0.357178ZM18.8802 35.007H13.8177V19.0434H18.8802V35.007ZM16.3177 17.0837C14.7187 17.0837 13.6849 15.9737 13.6849 14.6009C13.6849 13.2 14.75 12.1232 16.3828 12.1232C18.0156 12.1232 19.0156 13.2 19.0469 14.6009C19.0469 15.9737 18.0156 17.0837 16.3177 17.0837ZM37.3698 35.007H32.3073V26.1602C32.3073 24.101 31.5729 22.7026 29.7422 22.7026C28.3438 22.7026 27.513 23.6493 27.1458 24.5603C27.0104 24.8843 26.9766 25.3436 26.9766 25.8004V35.0045H21.9115V24.1341C21.9115 22.1412 21.8464 20.475 21.7786 19.0409H26.1771L26.4089 21.2583H26.5104C27.1771 20.2172 28.8099 18.6811 31.5417 18.6811C34.8724 18.6811 37.3698 20.8679 37.3698 25.5682V35.007Z" fill="black"/>
</svg>
