<svg width="47" height="42" viewBox="0 0 47 42" fill="none" xmlns="http://www.w3.org/2000/svg">
<path d="M45.306 3.14734L45.2237 3.10335L41.902 1.70373C37.6714 -0.0788038 32.7749 1.04731 29.7481 4.49887L27.0884 7.53174C25.0835 9.81802 25.0834 13.2361 27.0883 15.5225V15.5225C28.1534 16.7372 28.7896 18.3717 28.1811 19.8682C27.6579 21.1552 26.7992 22.3355 25.655 23.3141C24.4672 24.33 23.0249 25.0828 21.4529 25.5245C19.7436 26.0049 17.9602 25.4477 16.4657 24.4891V24.4891C13.6672 22.6941 10.0793 22.6941 7.28076 24.4892L5.47048 25.6503C0.670763 28.729 -0.865056 35.0345 1.9813 39.9755V39.9755L2.02408 40.0501L2.07564 40.1204C2.34696 40.4943 2.72566 40.8025 3.17569 41.0159C3.62572 41.2292 4.1321 41.3405 4.64663 41.3391H7.33191C12.5059 41.3391 17.6292 40.4675 22.4093 38.7741C27.1894 37.0807 31.5327 34.5987 35.1912 31.4697C38.8498 28.3407 41.7519 24.6261 43.7318 20.5378C45.7118 16.4496 46.7309 12.0679 46.7309 7.64288V5.34618C46.7325 4.90614 46.6025 4.47306 46.353 4.08817C46.1036 3.70328 45.7432 3.37939 45.306 3.14734ZM42.8852 7.64288C42.8852 24.4094 26.936 38.05 7.33191 38.05V38.05C5.98757 38.05 4.74557 37.3321 4.07461 36.1671L3.87501 35.8206C2.68941 33.7621 3.32929 31.1354 5.32878 29.8529L8.00828 28.1341C10.3639 26.6231 13.384 26.6231 15.7396 28.1341L16.9669 28.9212C17.3191 29.1472 17.7288 29.2673 18.1473 29.2673V29.2673C21.9835 29.2636 25.6614 27.9586 28.3741 25.6386C31.0867 23.3186 32.6125 20.1731 32.6168 16.8921V16.8921C32.6168 16.5388 32.4884 16.1975 32.2554 15.9319L31.3483 14.8974C29.657 12.9687 29.6569 10.0852 31.3482 8.15642L33.4064 5.80928C34.9427 4.05728 37.4282 3.48567 39.5755 4.39048L41.1731 5.06367C42.2106 5.50083 42.8852 6.51706 42.8852 7.64288V7.64288Z" fill="#F57BA7"/>
</svg>
