<svg width="240" height="39" viewBox="0 0 240 39" fill="none" xmlns="http://www.w3.org/2000/svg">
<path d="M180.42 21.7359L180.404 21.8523C180.112 23.9313 179.346 25.7124 178.118 27.1749C176.895 28.6319 175.302 29.6673 173.511 30.4033L173.511 30.4033C169.996 31.8475 165.417 32.2547 160.428 32.2608C155.448 32.2669 150.965 31.8733 147.569 30.4209L147.569 30.4209C145.831 29.6775 144.305 28.6278 143.153 27.1525L180.42 21.7359ZM180.42 21.7359L180.427 21.6185M180.42 21.7359L180.427 21.6185M180.427 21.6185C180.957 12.9824 173.261 2.98475 160.746 3.00002C154.567 3.00754 149.61 5.14658 146.195 8.62367M180.427 21.6185L141.061 21.6845M141.061 21.6845L141.061 21.5068C141.067 16.7085 142.809 12.072 146.195 8.62367M141.061 21.6845L141.082 21.861M141.061 21.6845L141.082 21.861M146.195 8.62367L148.326 10.7156L146.195 8.62367ZM141.082 21.861C141.322 23.9075 142.005 25.6815 143.153 27.1525L141.082 21.861Z" fill="#DDFFF9" stroke="#00A8A6" stroke-width="6"/>
<path d="M160.029 23.9456C161.904 23.9456 163.418 22.417 163.418 20.538C163.418 20.3114 163.396 20.0972 163.331 19.9116C163.263 19.7159 163.136 19.5272 162.92 19.416C162.716 19.3113 162.507 19.3142 162.35 19.338C162.192 19.3618 162.033 19.415 161.893 19.4691C161.773 19.515 161.644 19.5706 161.518 19.6246C161.494 19.6348 161.471 19.645 161.447 19.655C161.295 19.7203 161.142 19.7846 160.983 19.8422C160.664 19.9579 160.346 20.038 160.029 20.038C159.712 20.038 159.394 19.9579 159.075 19.8422C158.916 19.7846 158.763 19.7203 158.61 19.655C158.587 19.645 158.563 19.6348 158.54 19.6246C158.414 19.5706 158.285 19.515 158.165 19.4691C158.024 19.415 157.866 19.3618 157.708 19.338C157.55 19.3142 157.341 19.3113 157.138 19.416C156.922 19.5272 156.795 19.7159 156.727 19.9116C156.661 20.0972 156.64 20.3114 156.64 20.538C156.64 22.417 158.154 23.9456 160.029 23.9456Z" fill="#B6779D" stroke="#1F807D"/>
<path d="M151.798 17.8924C153.332 17.8906 154.574 16.482 154.572 14.7461C154.57 13.0103 153.324 11.6046 151.789 11.6064C150.255 11.6083 149.013 13.0169 149.015 14.7527C149.017 16.4886 150.263 17.8943 151.798 17.8924Z" fill="#492E23"/>
<path d="M151.126 14.6608C151.894 14.6599 152.515 14.1636 152.514 13.5524C152.513 12.9412 151.891 12.4465 151.123 12.4474C150.356 12.4484 149.735 12.9446 149.736 13.5558C149.736 14.167 150.359 14.6617 151.126 14.6608Z" fill="white"/>
<path d="M152.769 17.0935C153.122 17.0931 153.407 16.8648 153.407 16.5837C153.407 16.3025 153.12 16.075 152.767 16.0754C152.414 16.0759 152.129 16.3041 152.129 16.5852C152.129 16.8664 152.416 17.0939 152.769 17.0935Z" fill="white"/>
<path d="M149.988 15.3703C150.249 15.37 150.46 15.2112 150.46 15.0157C150.459 14.8201 150.248 14.6618 149.987 14.6621C149.726 14.6624 149.515 14.8212 149.515 15.0168C149.515 15.2124 149.727 15.3707 149.988 15.3703Z" fill="white"/>
<path d="M167.102 17.848C168.637 17.8463 169.879 16.4476 169.876 14.724C169.874 13.0004 168.628 11.6046 167.094 11.6064C165.559 11.6081 164.317 13.0068 164.319 14.7304C164.322 16.454 165.568 17.8498 167.102 17.848Z" fill="#492E23"/>
<path d="M168.129 17.0489C168.482 17.0484 168.767 16.8202 168.767 16.5391C168.767 16.2579 168.48 16.0304 168.127 16.0308C167.774 16.0312 167.489 16.2595 167.489 16.5406C167.489 16.8218 167.776 17.0493 168.129 17.0489Z" fill="white"/>
<path d="M165.126 15.3263C165.386 15.326 165.598 15.1672 165.597 14.9716C165.597 14.7761 165.386 14.6178 165.125 14.6181C164.864 14.6184 164.653 14.7772 164.653 14.9728C164.653 15.1684 164.865 15.3266 165.126 15.3263Z" fill="white"/>
<path d="M166.431 14.6607C167.198 14.6597 167.819 14.1635 167.818 13.5523C167.818 12.9411 167.195 12.4464 166.428 12.4473C165.66 12.4482 165.039 12.9445 165.04 13.5557C165.041 14.1669 165.663 14.6616 166.431 14.6607Z" fill="white"/>
<path d="M147.854 23.8176L146.587 24.7319Z" fill="#B5D4F9"/>
<path d="M147.854 23.8176L146.587 24.7319" stroke="#B6779D" stroke-width="0.5" stroke-linecap="round"/>
<path d="M149.899 24.6611L148.44 25.7419Z" fill="#B5D4F9"/>
<path d="M149.899 24.6611L148.44 25.7419" stroke="#B6779D" stroke-width="0.5" stroke-linecap="round"/>
<path d="M149.019 24.1758L147.251 25.4192Z" fill="#B5D4F9"/>
<path d="M149.019 24.1758L147.251 25.4192" stroke="#B6779D" stroke-width="0.5" stroke-linecap="round"/>
<path d="M150.974 25.1136L150.112 25.7192Z" fill="#B5D4F9"/>
<path d="M150.974 25.1136L150.112 25.7192" stroke="#B6779D" stroke-width="0.5" stroke-linecap="round"/>
<path d="M171.326 23.7415L172.595 24.6527Z" fill="#B5D4F9"/>
<path d="M171.326 23.7415L172.595 24.6527" stroke="#B6779D" stroke-width="0.5" stroke-linecap="round"/>
<path d="M169.283 24.5902L170.745 25.6674Z" fill="#B5D4F9"/>
<path d="M169.283 24.5902L170.745 25.6674" stroke="#B6779D" stroke-width="0.5" stroke-linecap="round"/>
<path d="M170.161 24.1027L171.933 25.3417Z" fill="#B5D4F9"/>
<path d="M170.161 24.1027L171.933 25.3417" stroke="#B6779D" stroke-width="0.5" stroke-linecap="round"/>
<path d="M168.209 25.0453L169.073 25.6488Z" fill="#B5D4F9"/>
<path d="M168.209 25.0453L169.073 25.6488" stroke="#B6779D" stroke-width="0.5" stroke-linecap="round"/>
<path d="M2.88 35.585L0.855 4.895L19.71 3.23L20.925 34.46L14.04 34.595L15.345 8.945L6.975 8.99L9.81 35.045L2.88 35.585ZM23.7308 34.91L35.0708 1.16L43.5308 3.59L52.5308 34.91H42.1808L40.2008 20.69H33.7208L30.8408 34.91H23.7308ZM40.2908 16.73L38.4908 6.65L34.7108 16.82L40.2908 16.73ZM57.7575 2.69L56.0475 34.91L65.2275 34.55C65.2275 34.55 64.7325 26.72 64.1925 18.8C66.8925 19.07 70.7175 19.43 73.4625 19.655C72.9675 27.305 72.5175 34.55 72.5175 34.55H80.8875L79.2675 2.06L74.5875 2.24C74.5875 2.24 74.2275 7.91 73.8225 14.525L63.9225 14.435C63.5175 7.955 63.1575 2.42 63.1575 2.42L57.7575 2.69ZM84.5722 35.09L99.9622 35.18L99.1522 29.96C99.1522 29.96 97.8022 30.095 95.9122 30.23C95.5072 24.065 94.7872 12.77 94.3822 6.65C96.6772 6.605 98.4322 6.56 98.4322 6.56L97.8922 2.15L84.4822 2.6L84.3922 6.83C84.3922 6.83 86.1922 6.785 88.4872 6.74C88.1722 12.995 87.5422 24.83 87.2272 30.95C85.4272 31.13 84.2122 31.22 84.2122 31.22L84.5722 35.09Z" fill="#A2FFEF"/>
<path d="M102.474 34.37L111.519 35.09L112.734 11.825L116.379 24.92L122.589 25.055L128.889 11.915L126.729 35L136.314 33.875L133.299 2.51L126.144 2.06L120.519 20.33L115.434 1.97L106.344 2.915L102.474 34.37ZM185.023 2.69L183.043 9.98L193.033 9.53L189.253 35.36L198.163 35.27L198.703 9.71L208.693 8.72L206.443 2.78L185.023 2.69ZM212.365 35.09L227.755 35.18L226.945 29.96C226.945 29.96 225.595 30.095 223.705 30.23C223.3 24.065 222.58 12.77 222.175 6.65C224.47 6.605 226.225 6.56 226.225 6.56L225.685 2.15L212.275 2.6L212.185 6.83C212.185 6.83 213.985 6.785 216.28 6.74C215.965 12.995 215.335 24.83 215.02 30.95C213.22 31.13 212.005 31.22 212.005 31.22L212.365 35.09Z" fill="#00A8A6"/>
</svg>
