<svg width="130" height="130" viewBox="0 0 140 140" fill="none" xmlns="http://www.w3.org/2000/svg">
<path d="M21.4341 40.1384C20.4847 40.7258 19.5435 39.9557 20.0524 38.9623C20.8845 37.3382 22.2861 34.9377 24.6256 31.6089C27.0019 28.2276 29.7319 25.9225 32.9234 22.4475C36.7532 19.2883 41.3157 15.9702 45.6894 13.602C50.0631 11.2338 55.9021 8.81066 68.6681 6.96785C78.5617 5.53966 96.4341 8.86331 105.939 15.685C113.425 20.1852 119.85 26.2208 124.782 33.3855C129.713 40.5503 133.037 48.6777 134.528 57.2207C135.952 65.3778 134.679 77.8282 134.391 79.7931C134.369 79.9367 134.332 80.0686 134.283 80.2053L134 81L133.428 82.429C133.18 83.0499 132.524 83.4048 131.867 83.2734V83.2734C131.112 83.1225 130.623 82.3914 130.761 81.6354C131.732 76.3122 132.882 67.1898 131.589 59.7848C130.178 51.7006 126.728 42.0004 122.061 35.2204C117.395 28.4404 111.314 22.7289 104.23 18.4703C97.1463 14.2118 91.966 16.5749 85.9022 19.2884C78.8425 22.4475 77.9234 23.0421 70.583 25.6066C63.2426 28.171 55.583 29.7134 51.1149 30.3452C50.8439 30.3835 50.5864 30.4196 50.3418 30.4536C48.173 30.7546 43.2549 31.5441 41.1228 32.0406L40.2639 32.2407L35.4766 33.5043L32.5825 34.3637C32.3848 34.4225 32.1937 34.5014 32.0123 34.5994L28.7745 36.3475L25.583 37.9271L21.4341 40.1384V40.1384Z" fill="#00A8A6" stroke="#105E5D" stroke-miterlimit="4.97955"/>
<path d="M17.1076 84.702L33.9902 77.072L38.9594 87.2366L21.599 94.5292L20.0513 90.7174L34.802 86.0123L32.9878 81.3531L18.8934 88.4532L17.1076 84.702Z" fill="#A1FFEF"/>
<path d="M17.1076 84.702L16.899 84.2498L16.4361 84.459L16.6527 84.9141L17.1076 84.702ZM33.9902 77.072L34.4429 76.8553L34.2289 76.4176L33.7815 76.6198L33.9902 77.072ZM38.9594 87.2366L39.1556 87.6943L39.6418 87.49L39.412 87.0199L38.9594 87.2366ZM21.599 94.5292L21.1324 94.7148L21.3233 95.1851L21.7952 94.9868L21.599 94.5292ZM20.0513 90.7174L19.8974 90.2442L19.3838 90.408L19.5847 90.9029L20.0513 90.7174ZM34.802 86.0123L34.956 86.4855L35.4623 86.3241L35.2712 85.8333L34.802 86.0123ZM32.9878 81.3531L33.457 81.1741L33.2567 80.6598L32.7599 80.9101L32.9878 81.3531ZM18.8934 88.4532L18.4385 88.6653L18.6592 89.129L19.1213 88.8962L18.8934 88.4532ZM17.3163 85.1542L34.1989 77.5242L33.7815 76.6198L16.899 84.2498L17.3163 85.1542ZM33.5375 77.2887L38.5067 87.4534L39.412 87.0199L34.4429 76.8553L33.5375 77.2887ZM38.7631 86.779L21.4027 94.0716L21.7952 94.9868L39.1556 87.6943L38.7631 86.779ZM22.0656 94.3436L20.5179 90.5318L19.5847 90.9029L21.1324 94.7148L22.0656 94.3436ZM20.2053 91.1906L34.956 86.4855L34.6481 85.5391L19.8974 90.2442L20.2053 91.1906ZM35.2712 85.8333L33.457 81.1741L32.5186 81.5321L34.3328 86.1913L35.2712 85.8333ZM32.7599 80.9101L18.6655 88.0102L19.1213 88.8962L33.2157 81.7961L32.7599 80.9101ZM19.3483 88.2411L17.5625 84.4899L16.6527 84.9141L18.4385 88.6653L19.3483 88.2411Z" fill="#105E5D"/>
<path d="M23.7817 99.6769L42.7978 89.7341L45.468 94.2647L36.3223 111.52L31.8155 107.264L36.885 100.296L34.0633 97.631L26.8776 102.601L23.7817 99.6769ZM38.576 98.619L41.997 93.5164L36.1087 96.3633L38.576 98.619Z" fill="#A1FFEF"/>
<path d="M23.7817 99.6769L23.5484 99.2371L22.9293 99.5608L23.4341 100.037L23.7817 99.6769ZM42.7978 89.7341L43.2321 89.482L42.9903 89.0718L42.5646 89.2944L42.7978 89.7341ZM45.468 94.2647L45.9128 94.4945L46.0422 94.2502L45.9023 94.0127L45.468 94.2647ZM36.3223 111.52L35.9747 111.881L36.4566 112.336L36.7671 111.75L36.3223 111.52ZM31.8155 107.264L31.4082 106.974L31.1521 107.326L31.4679 107.625L31.8155 107.264ZM36.885 100.296L37.2923 100.585L37.5485 100.233L37.2326 99.9351L36.885 100.296ZM34.0633 97.631L34.411 97.2703L34.1142 96.9901L33.7767 97.2235L34.0633 97.631ZM26.8776 102.601L26.53 102.961L26.8268 103.242L27.1643 103.008L26.8776 102.601ZM38.576 98.619L38.2343 98.9851L38.6672 99.3809L38.9944 98.8929L38.576 98.619ZM41.997 93.5164L42.4153 93.7904L43.436 92.2679L41.7779 93.0695L41.997 93.5164ZM36.1087 96.3633L35.8897 95.9164L35.2278 96.2364L35.767 96.7294L36.1087 96.3633ZM24.0149 100.117L43.0311 90.1738L42.5646 89.2944L23.5484 99.2371L24.0149 100.117ZM42.3635 89.9861L45.0337 94.5167L45.9023 94.0127L43.2321 89.482L42.3635 89.9861ZM45.0232 94.0349L35.8776 111.29L36.7671 111.75L45.9128 94.4945L45.0232 94.0349ZM36.67 111.16L32.1631 106.903L31.4679 107.625L35.9747 111.881L36.67 111.16ZM32.2229 107.554L37.2923 100.585L36.4777 100.006L31.4082 106.974L32.2229 107.554ZM37.2326 99.9351L34.411 97.2703L33.7157 97.9916L36.5374 100.656L37.2326 99.9351ZM33.7767 97.2235L26.591 102.193L27.1643 103.008L34.35 98.0384L33.7767 97.2235ZM27.2253 102.24L24.1293 99.3162L23.4341 100.037L26.53 102.961L27.2253 102.24ZM38.9944 98.8929L42.4153 93.7904L41.5786 93.2424L38.1577 98.345L38.9944 98.8929ZM41.7779 93.0695L35.8897 95.9164L36.3278 96.8101L42.216 93.9633L41.7779 93.0695ZM35.767 96.7294L38.2343 98.9851L38.9178 98.2528L36.4505 95.9971L35.767 96.7294Z" fill="#105E5D"/>
<path d="M49.7388 97.8076L39.2384 114.073L44.1509 116.582C44.1509 116.582 46.226 112.362 48.3044 108.082C49.6372 109.016 51.5321 110.327 52.9018 111.25C50.3621 115.086 47.9667 118.724 47.9667 118.724L52.3479 121.183L61.1857 103.799L58.6824 102.518C58.6824 102.518 56.8036 105.363 54.6196 108.686L49.4644 105.731C51.1842 102.24 52.6458 99.2536 52.6458 99.2536L49.7388 97.8076Z" fill="#A1FFEF"/>
<path d="M49.7388 97.8076L49.9651 97.3622L49.561 97.1612L49.3164 97.5401L49.7388 97.8076ZM39.2384 114.073L38.816 113.805L38.5185 114.266L39.0072 114.515L39.2384 114.073ZM44.1509 116.582L43.9197 117.025L44.3761 117.258L44.6019 116.799L44.1509 116.582ZM48.3044 108.082L48.595 107.675L48.1106 107.335L47.8524 107.867L48.3044 108.082ZM52.9018 111.25L53.3211 111.523L53.5924 111.113L53.1851 110.838L52.9018 111.25ZM47.9667 118.724L47.5468 118.453L47.2542 118.897L47.7183 119.158L47.9667 118.724ZM52.3479 121.183L52.0995 121.617L52.5579 121.874L52.7959 121.406L52.3479 121.183ZM61.1857 103.799L61.6338 104.022L61.8576 103.582L61.4172 103.357L61.1857 103.799ZM58.6824 102.518L58.9139 102.075L58.5117 101.869L58.2628 102.246L58.6824 102.518ZM54.6196 108.686L54.3672 109.118L54.7791 109.354L55.0398 108.957L54.6196 108.686ZM49.4644 105.731L49.0136 105.514L48.8081 105.931L49.212 106.162L49.4644 105.731ZM52.6458 99.2536L53.0972 99.4697L53.3136 99.0278L52.8722 98.8082L52.6458 99.2536ZM49.3164 97.5401L38.816 113.805L39.6608 114.34L50.1612 98.075L49.3164 97.5401ZM39.0072 114.515L43.9197 117.025L44.382 116.139L39.4695 113.63L39.0072 114.515ZM44.1509 116.582C44.6019 116.799 44.6019 116.799 44.6019 116.799C44.6019 116.799 44.6019 116.799 44.602 116.799C44.602 116.799 44.6021 116.799 44.6022 116.798C44.6025 116.798 44.6029 116.797 44.6034 116.796C44.6044 116.794 44.6059 116.791 44.6079 116.787C44.6119 116.779 44.6179 116.767 44.6257 116.751C44.6414 116.719 44.6648 116.671 44.6952 116.609C44.756 116.486 44.8452 116.304 44.9587 116.073C45.1858 115.61 45.5102 114.949 45.8996 114.153C46.6783 112.563 47.717 110.437 48.7565 108.297L47.8524 107.867C46.8135 110.007 45.7753 112.131 44.9969 113.721C44.6077 114.516 44.2834 115.177 44.0564 115.639C43.9429 115.871 43.8538 116.052 43.793 116.176C43.7626 116.238 43.7393 116.285 43.7236 116.317C43.7158 116.333 43.7098 116.345 43.7059 116.353C43.7039 116.357 43.7024 116.36 43.7014 116.362C43.7009 116.363 43.7005 116.364 43.7002 116.365C43.7001 116.365 43.7 116.365 43.7 116.365C43.6999 116.365 43.6999 116.365 43.6999 116.365C43.6999 116.365 43.6999 116.365 44.1509 116.582ZM48.0138 108.489C49.348 109.424 51.2455 110.737 52.6186 111.663L53.1851 110.838C51.8187 109.917 49.9265 108.608 48.595 107.675L48.0138 108.489ZM52.4826 110.978C51.2125 112.896 49.9786 114.765 49.0622 116.154C48.604 116.849 48.2251 117.423 47.9608 117.824C47.8287 118.025 47.7252 118.182 47.6547 118.289C47.6195 118.342 47.5925 118.383 47.5743 118.411C47.5652 118.425 47.5583 118.435 47.5537 118.442C47.5514 118.446 47.5497 118.448 47.5485 118.45C47.5479 118.451 47.5475 118.452 47.5472 118.452C47.5471 118.452 47.5469 118.453 47.5469 118.453C47.5468 118.453 47.5468 118.453 47.5468 118.453C47.5468 118.453 47.5468 118.453 47.9667 118.724C48.3867 118.995 48.3867 118.995 48.3867 118.995C48.3867 118.995 48.3867 118.995 48.3868 118.995C48.3869 118.995 48.387 118.995 48.3871 118.995C48.3874 118.994 48.3878 118.994 48.3884 118.993C48.3896 118.991 48.3913 118.988 48.3936 118.985C48.3982 118.978 48.4051 118.967 48.4142 118.954C48.4323 118.926 48.4593 118.885 48.4945 118.832C48.565 118.725 48.6684 118.568 48.8005 118.367C49.0647 117.966 49.4435 117.392 49.9016 116.697C50.8178 115.308 52.0514 113.44 53.3211 111.523L52.4826 110.978ZM47.7183 119.158L52.0995 121.617L52.5963 120.75L48.2151 118.29L47.7183 119.158ZM52.7959 121.406L61.6338 104.022L60.7377 103.576L51.8999 120.96L52.7959 121.406ZM61.4172 103.357L58.9139 102.075L58.4509 102.961L60.9543 104.242L61.4172 103.357ZM58.6824 102.518C58.2628 102.246 58.2628 102.246 58.2628 102.246C58.2628 102.246 58.2628 102.246 58.2627 102.246C58.2627 102.246 58.2626 102.247 58.2625 102.247C58.2622 102.247 58.2619 102.248 58.2614 102.248C58.2605 102.25 58.2592 102.252 58.2573 102.255C58.2537 102.26 58.2483 102.268 58.2412 102.279C58.2269 102.301 58.2056 102.333 58.1778 102.375C58.1221 102.459 58.0402 102.583 57.935 102.743C57.7247 103.062 57.4216 103.521 57.0502 104.084C56.3074 105.211 55.2916 106.754 54.1994 108.416L55.0398 108.957C56.1316 107.296 57.1472 105.754 57.8898 104.627C58.2611 104.064 58.5642 103.605 58.7744 103.286C58.8795 103.127 58.9614 103.003 59.017 102.919C59.0448 102.876 59.0661 102.844 59.0804 102.823C59.0875 102.812 59.0929 102.804 59.0965 102.798C59.0983 102.795 59.0997 102.793 59.1006 102.792C59.1011 102.791 59.1014 102.791 59.1016 102.79C59.1017 102.79 59.1018 102.79 59.1019 102.79C59.1019 102.79 59.1019 102.79 59.102 102.79C59.102 102.79 59.102 102.79 58.6824 102.518ZM54.872 108.255L49.7168 105.3L49.212 106.162L54.3672 109.118L54.872 108.255ZM49.9152 105.948C50.7753 104.202 51.5708 102.583 52.1512 101.4C52.4415 100.808 52.678 100.326 52.8419 99.9911C52.9239 99.8238 52.9877 99.6935 53.031 99.605C53.0527 99.5607 53.0693 99.5269 53.0804 99.5042C53.086 99.4928 53.0902 99.4842 53.093 99.4784C53.0944 99.4756 53.0955 99.4734 53.0962 99.4719C53.0965 99.4712 53.0968 99.4707 53.097 99.4703C53.0971 99.4701 53.0971 99.47 53.0972 99.4699C53.0972 99.4698 53.0972 99.4698 53.0972 99.4698C53.0972 99.4698 53.0972 99.4697 52.6458 99.2536C52.1944 99.0374 52.1944 99.0374 52.1944 99.0374C52.1944 99.0375 52.1944 99.0375 52.1944 99.0375C52.1943 99.0376 52.1943 99.0378 52.1942 99.0379C52.194 99.0383 52.1937 99.0388 52.1934 99.0396C52.1927 99.041 52.1916 99.0432 52.1902 99.0461C52.1874 99.0518 52.1832 99.0604 52.1776 99.0718C52.1665 99.0945 52.15 99.1282 52.1283 99.1724C52.085 99.2609 52.0212 99.3911 51.9393 99.5584C51.7754 99.8928 51.539 100.375 51.2489 100.966C50.6685 102.149 49.8733 103.768 49.0136 105.514L49.9152 105.948ZM52.8722 98.8082L49.9651 97.3622L49.5125 98.2529L52.4195 99.6989L52.8722 98.8082Z" fill="#105E5D"/>
<path d="M58.3702 123.276L67.279 125.791L67.6565 122.655C67.6565 122.655 66.8518 122.516 65.7341 122.292C66.4998 118.676 67.9153 112.054 68.6737 108.463C70.0117 108.805 71.0366 109.06 71.0366 109.06L71.4392 106.433L63.5907 104.546L62.8521 106.968C62.8521 106.968 63.9031 107.23 65.2411 107.572C64.0433 111.125 61.7573 117.841 60.5815 121.316C59.5086 121.132 58.7895 120.989 58.7895 120.989L58.3702 123.276Z" fill="#A1FFEF"/>
<path d="M58.3702 123.276L57.8765 123.188L57.7951 123.632L58.2321 123.756L58.3702 123.276ZM67.279 125.791L67.141 126.271L67.7073 126.431L67.7772 125.85L67.279 125.791ZM67.6565 122.655L68.1547 122.713L68.2111 122.244L67.743 122.164L67.6565 122.655ZM65.7341 122.292L65.2431 122.19L65.1392 122.681L65.6336 122.78L65.7341 122.292ZM68.6737 108.463L68.7995 107.981L68.2906 107.851L68.1827 108.362L68.6737 108.463ZM71.0366 109.06L70.9138 109.543L71.4495 109.676L71.5326 109.134L71.0366 109.06ZM71.4392 106.433L71.9352 106.507L72.0043 106.056L71.5581 105.949L71.4392 106.433ZM63.5907 104.546L63.7097 104.062L63.2483 103.951L63.1105 104.402L63.5907 104.546ZM62.8521 106.968L62.3719 106.825L62.2195 107.324L62.729 107.451L62.8521 106.968ZM65.2411 107.572L65.7168 107.729L65.8878 107.222L65.3668 107.089L65.2411 107.572ZM60.5815 121.316L60.495 121.807L60.9197 121.88L61.0571 121.474L60.5815 121.316ZM58.7895 120.989L58.8887 120.501L58.3875 120.401L58.2959 120.901L58.7895 120.989ZM58.2321 123.756L67.141 126.271L67.4171 125.312L58.5082 122.797L58.2321 123.756ZM67.7772 125.85L68.1547 122.713L67.1583 122.597L66.7808 125.733L67.7772 125.85ZM67.6565 122.655C67.743 122.164 67.743 122.164 67.743 122.164C67.743 122.164 67.743 122.164 67.743 122.164C67.743 122.164 67.743 122.164 67.7429 122.164C67.7429 122.164 67.7427 122.164 67.7426 122.164C67.7422 122.164 67.7417 122.164 67.741 122.164C67.7395 122.163 67.7373 122.163 67.7343 122.162C67.7284 122.161 67.7194 122.16 67.7075 122.158C67.6838 122.154 67.6484 122.147 67.6025 122.139C67.5105 122.123 67.376 122.099 67.2067 122.068C66.868 122.005 66.3902 121.915 65.8345 121.803L65.6336 122.78C66.1957 122.893 66.6791 122.984 67.0222 123.047C67.1938 123.079 67.3303 123.103 67.4242 123.12C67.4711 123.128 67.5074 123.135 67.532 123.139C67.5443 123.141 67.5537 123.143 67.5601 123.144C67.5633 123.145 67.5657 123.145 67.5674 123.145C67.5682 123.145 67.5688 123.146 67.5693 123.146C67.5695 123.146 67.5697 123.146 67.5698 123.146C67.5699 123.146 67.5699 123.146 67.57 123.146C67.57 123.146 67.57 123.146 67.57 123.146C67.57 123.146 67.57 123.146 67.6565 122.655ZM66.2251 122.393C66.99 118.781 68.4068 112.153 69.1648 108.565L68.1827 108.362C67.4239 111.954 66.0095 118.57 65.2431 122.19L66.2251 122.393ZM68.548 108.946C69.2177 109.117 69.809 109.266 70.2329 109.373C70.4449 109.426 70.615 109.469 70.7322 109.498C70.7908 109.512 70.8362 109.524 70.8669 109.531C70.8822 109.535 70.8939 109.538 70.9018 109.54C70.9058 109.541 70.9087 109.542 70.9107 109.542C70.9117 109.543 70.9125 109.543 70.913 109.543C70.9133 109.543 70.9135 109.543 70.9136 109.543C70.9136 109.543 70.9137 109.543 70.9137 109.543C70.9137 109.543 70.9138 109.543 70.9138 109.543C70.9138 109.543 70.9138 109.543 71.0366 109.06C71.1594 108.577 71.1594 108.577 71.1594 108.577C71.1594 108.577 71.1594 108.577 71.1594 108.577C71.1593 108.577 71.1593 108.577 71.1592 108.576C71.1591 108.576 71.1589 108.576 71.1587 108.576C71.1582 108.576 71.1575 108.576 71.1565 108.576C71.1545 108.575 71.1516 108.575 71.1477 108.574C71.1399 108.572 71.1283 108.569 71.113 108.565C71.0825 108.557 71.0373 108.546 70.9789 108.532C70.8621 108.502 70.6924 108.46 70.4809 108.407C70.0578 108.3 69.4677 108.151 68.7995 107.981L68.548 108.946ZM71.5326 109.134L71.9352 106.507L70.9431 106.359L70.5406 108.986L71.5326 109.134ZM71.5581 105.949L63.7097 104.062L63.4718 105.03L71.3202 106.917L71.5581 105.949ZM63.1105 104.402L62.3719 106.825L63.3323 107.112L64.0709 104.69L63.1105 104.402ZM62.8521 106.968C62.729 107.451 62.729 107.452 62.729 107.452C62.729 107.452 62.729 107.452 62.729 107.452C62.729 107.452 62.7291 107.452 62.7291 107.452C62.7293 107.452 62.7294 107.452 62.7297 107.452C62.7302 107.452 62.731 107.452 62.732 107.452C62.734 107.453 62.737 107.454 62.741 107.455C62.749 107.456 62.7609 107.459 62.7765 107.463C62.8078 107.471 62.854 107.483 62.9136 107.498C63.0329 107.528 63.2059 107.571 63.4207 107.625C63.8503 107.733 64.447 107.884 65.1153 108.054L65.3668 107.089C64.6971 106.918 64.0994 106.767 63.669 106.659C63.4538 106.605 63.2804 106.561 63.1608 106.531C63.101 106.516 63.0546 106.505 63.0232 106.497C63.0075 106.493 62.9955 106.49 62.9874 106.488C62.9834 106.487 62.9804 106.486 62.9783 106.486C62.9773 106.486 62.9765 106.485 62.976 106.485C62.9757 106.485 62.9755 106.485 62.9754 106.485C62.9753 106.485 62.9753 106.485 62.9753 106.485C62.9752 106.485 62.9752 106.485 62.9752 106.485C62.9752 106.485 62.9752 106.485 62.8521 106.968ZM64.7653 107.414C63.5675 110.967 61.2824 117.681 60.1059 121.159L61.0571 121.474C62.2322 118.001 64.5191 111.282 65.7168 107.729L64.7653 107.414ZM60.668 120.826C60.1343 120.734 59.6888 120.653 59.3769 120.594C59.221 120.565 59.0986 120.542 59.0153 120.526C58.9736 120.518 58.9418 120.511 58.9205 120.507C58.9098 120.505 58.9017 120.503 58.8964 120.502C58.8938 120.502 58.8918 120.501 58.8905 120.501C58.8898 120.501 58.8894 120.501 58.8891 120.501C58.8889 120.501 58.8888 120.501 58.8887 120.501C58.8887 120.501 58.8887 120.501 58.8887 120.501C58.8887 120.501 58.8887 120.501 58.8887 120.501C58.8887 120.501 58.8887 120.501 58.7895 120.989C58.6903 121.478 58.6903 121.478 58.6904 121.478C58.6904 121.478 58.6904 121.478 58.6904 121.478C58.6904 121.478 58.6905 121.478 58.6905 121.478C58.6906 121.478 58.6908 121.478 58.691 121.478C58.6914 121.478 58.692 121.478 58.6927 121.479C58.6942 121.479 58.6964 121.479 58.6993 121.48C58.705 121.481 58.7134 121.483 58.7245 121.485C58.7467 121.489 58.7794 121.495 58.822 121.504C58.907 121.52 59.0314 121.544 59.1894 121.573C59.5053 121.633 59.9557 121.715 60.495 121.807L60.668 120.826ZM58.2959 120.901L57.8765 123.188L58.8638 123.365L59.2831 121.078L58.2959 120.901Z" fill="#105E5D"/>
<path d="M72.6482 125.344L78.1157 125.213L77.3919 111.318L80.3945 118.872L84.1258 118.569L87.0825 110.374L87.2285 124.221L92.9045 122.961L89.1393 104.515L84.8217 104.689L82.5899 115.89L78.3954 105.297L73.0049 106.419L72.6482 125.344Z" fill="#00A8A6"/>
<path d="M72.6482 125.344L72.146 125.334L72.1362 125.854L72.6604 125.841L72.6482 125.344ZM78.1157 125.213L78.1279 125.711L78.6439 125.698L78.6173 125.187L78.1157 125.213ZM77.3919 111.318L77.8592 111.135L76.8903 111.343L77.3919 111.318ZM80.3945 118.872L79.9271 119.054L80.0638 119.398L80.4356 119.368L80.3945 118.872ZM84.1258 118.569L84.1669 119.065L84.4897 119.038L84.5988 118.736L84.1258 118.569ZM87.0825 110.374L87.5848 110.369L86.6095 110.206L87.0825 110.374ZM87.2285 124.221L86.7262 124.226L86.7327 124.841L87.3384 124.706L87.2285 124.221ZM92.9045 122.961L93.0144 123.447L93.4943 123.34L93.3968 122.862L92.9045 122.961ZM89.1393 104.515L89.6316 104.416L89.5467 104L89.1187 104.018L89.1393 104.515ZM84.8217 104.689L84.8012 104.192L84.4056 104.208L84.329 104.593L84.8217 104.689ZM82.5899 115.89L82.1223 116.071L82.7499 117.656L83.0827 115.986L82.5899 115.89ZM78.3954 105.297L78.863 105.115L78.7078 104.723L78.292 104.81L78.3954 105.297ZM73.0049 106.419L72.9015 105.932L72.5102 106.014L72.5027 106.41L73.0049 106.419ZM72.6604 125.841L78.1279 125.711L78.1034 124.715L72.636 124.846L72.6604 125.841ZM78.6173 125.187L77.8935 111.292L76.8903 111.343L77.614 125.239L78.6173 125.187ZM76.9246 111.5L79.9271 119.054L80.8618 118.689L77.8592 111.135L76.9246 111.5ZM80.4356 119.368L84.1669 119.065L84.0847 118.073L80.3533 118.376L80.4356 119.368ZM84.5988 118.736L87.5555 110.542L86.6095 110.206L83.6528 118.401L84.5988 118.736ZM86.5802 110.379L86.7262 124.226L87.7307 124.216L87.5848 110.369L86.5802 110.379ZM87.3384 124.706L93.0144 123.447L92.7946 122.475L87.1186 123.735L87.3384 124.706ZM93.3968 122.862L89.6316 104.416L88.647 104.614L92.4122 123.059L93.3968 122.862ZM89.1187 104.018L84.8012 104.192L84.8423 105.187L89.1598 105.012L89.1187 104.018ZM84.329 104.593L82.0971 115.793L83.0827 115.986L85.3145 104.786L84.329 104.593ZM83.0575 115.708L78.863 105.115L77.9279 105.478L82.1223 116.071L83.0575 115.708ZM78.292 104.81L72.9015 105.932L73.1083 106.906L78.4988 105.784L78.292 104.81ZM72.5027 106.41L72.146 125.334L73.1504 125.353L73.5071 106.429L72.5027 106.41Z" fill="#105E5D"/>
<path d="M97.5195 100.678C101.441 98.584 106.642 100.594 109.138 105.175C111.635 109.756 110.475 115.162 106.553 117.256C102.632 119.349 97.4312 117.34 94.9347 112.758C92.4382 108.177 93.598 102.772 97.5195 100.678ZM97.1 110.048C98.3868 112.409 101.044 113.49 103.029 112.43C105.013 111.371 105.56 108.579 104.273 106.217C102.987 103.856 100.329 102.775 98.3446 103.835C96.3599 104.894 95.8131 107.686 97.1 110.048Z" fill="#00A8A6"/>
<path d="M97.7578 101.115C101.368 99.1873 106.292 101 108.695 105.411L109.581 104.938C106.992 100.187 101.514 97.9807 97.2812 100.24L97.7578 101.115ZM108.695 105.411C111.099 109.822 109.926 114.89 106.315 116.818L106.792 117.693C111.024 115.433 112.17 109.69 109.581 104.938L108.695 105.411ZM106.315 116.818C102.704 118.746 97.7812 116.933 95.3775 112.522L94.4919 112.995C97.0813 117.747 102.559 119.953 106.792 117.693L106.315 116.818ZM95.3775 112.522C92.9738 108.111 94.1472 103.043 97.7578 101.115L97.2812 100.24C93.0489 102.5 91.9026 108.243 94.4919 112.995L95.3775 112.522ZM96.6572 110.284C98.0298 112.803 100.961 114.099 103.267 112.868L102.79 111.993C101.128 112.881 98.7439 112.015 97.5428 109.811L96.6572 110.284ZM103.267 112.868C105.574 111.636 106.089 108.5 104.716 105.981L103.831 106.454C105.032 108.658 104.453 111.105 102.79 111.993L103.267 112.868ZM104.716 105.981C103.344 103.462 100.413 102.166 98.1063 103.397L98.5829 104.272C100.246 103.384 102.63 104.25 103.831 106.454L104.716 105.981ZM98.1063 103.397C95.7998 104.629 95.2845 107.765 96.6572 110.284L97.5428 109.811C96.3417 107.607 96.92 105.16 98.5829 104.272L98.1063 103.397Z" fill="#105E5D"/>
<path d="M104.079 94.9315L106.666 98.6332L110.345 93.8874L120.769 105.522L124.194 101.409L112.633 91.3608L116.064 86.408L112.453 85.1603L104.079 94.9315Z" fill="#00A8A6"/>
<path d="M104.079 94.9315L103.696 94.6104L103.446 94.9023L103.665 95.2159L104.079 94.9315ZM106.666 98.6332L106.252 98.9176L106.643 99.4773L107.064 98.9353L106.666 98.6332ZM110.345 93.8874L110.721 93.5562L110.318 93.1064L109.947 93.5854L110.345 93.8874ZM120.769 105.522L120.393 105.853L120.782 106.288L121.156 105.838L120.769 105.522ZM124.194 101.409L124.581 101.725L124.892 101.352L124.526 101.034L124.194 101.409ZM112.633 91.3608L112.219 91.0805L111.967 91.445L112.301 91.7355L112.633 91.3608ZM116.064 86.408L116.478 86.6883L116.849 86.1517L116.231 85.938L116.064 86.408ZM112.453 85.1603L112.62 84.6904L112.295 84.5779L112.071 84.8392L112.453 85.1603ZM103.665 95.2159L106.252 98.9176L107.079 98.3488L104.492 94.6471L103.665 95.2159ZM107.064 98.9353L110.743 94.1895L109.947 93.5854L106.268 98.3312L107.064 98.9353ZM109.968 94.2186L120.393 105.853L121.146 105.191L110.721 93.5562L109.968 94.2186ZM121.156 105.838L124.581 101.725L123.807 101.093L120.382 105.207L121.156 105.838ZM124.526 101.034L112.966 90.9862L112.301 91.7355L123.862 101.784L124.526 101.034ZM113.047 91.6412L116.478 86.6883L115.65 86.1276L112.219 91.0805L113.047 91.6412ZM116.231 85.938L112.62 84.6904L112.286 85.6303L115.897 86.8779L116.231 85.938ZM112.071 84.8392L103.696 94.6104L104.461 95.2526L112.835 85.4815L112.071 84.8392Z" fill="#105E5D"/>
<path d="M131.428 88.5976L134.305 79.8446L131.163 79.3611C131.163 79.3611 130.992 80.1548 130.723 81.2562C127.113 80.3709 120.504 78.7363 116.92 77.8592C117.316 76.5433 117.612 75.5352 117.612 75.5352L114.984 75.0445L112.78 82.7671L115.189 83.5841C115.189 83.5841 115.494 82.5503 115.89 81.2345C119.419 82.5463 126.09 85.0479 129.541 86.3353C129.314 87.3935 129.142 88.1021 129.142 88.1021L131.428 88.5976Z" fill="#00A8A6"/>
<path d="M131.428 88.5976L131.32 89.0844L131.764 89.1806L131.905 88.7513L131.428 88.5976ZM134.305 79.8446L134.782 79.9982L134.965 79.4418L134.383 79.3523L134.305 79.8446ZM131.163 79.3611L131.241 78.8688L130.771 78.7965L130.672 79.2583L131.163 79.3611ZM130.723 81.2562L130.601 81.7399L131.091 81.86L131.21 81.3728L130.723 81.2562ZM116.92 77.8592L116.44 77.7176L116.289 78.2181L116.799 78.3429L116.92 77.8592ZM117.612 75.5352L118.094 75.6738L118.249 75.1469L117.706 75.0455L117.612 75.5352ZM114.984 75.0445L115.078 74.5548L114.627 74.4706L114.502 74.9096L114.984 75.0445ZM112.78 82.7671L112.298 82.6322L112.168 83.0862L112.617 83.2386L112.78 82.7671ZM115.189 83.5841L115.026 84.0556L115.523 84.2242L115.671 83.7231L115.189 83.5841ZM115.89 81.2345L116.066 80.7678L115.563 80.5806L115.409 81.0929L115.89 81.2345ZM129.541 86.3353L130.032 86.4382L130.122 86.0193L129.719 85.8688L129.541 86.3353ZM129.142 88.1021L128.655 87.9868L128.535 88.4807L129.034 88.5889L129.142 88.1021ZM131.905 88.7513L134.782 79.9982L133.828 79.691L130.951 88.444L131.905 88.7513ZM134.383 79.3523L131.241 78.8688L131.085 79.8535L134.227 80.337L134.383 79.3523ZM131.163 79.3611C130.672 79.2583 130.672 79.2583 130.672 79.2583C130.672 79.2583 130.672 79.2583 130.672 79.2583C130.672 79.2583 130.672 79.2583 130.672 79.2583C130.672 79.2584 130.672 79.2585 130.672 79.2587C130.672 79.259 130.672 79.2596 130.672 79.2603C130.671 79.2617 130.671 79.2639 130.67 79.2668C130.669 79.2727 130.667 79.2816 130.665 79.2933C130.659 79.3167 130.652 79.3515 130.642 79.3969C130.622 79.4876 130.592 79.6202 130.554 79.7871C130.479 80.121 130.369 80.5921 130.235 81.1395L131.21 81.3728C131.346 80.819 131.457 80.3424 131.533 80.0042C131.572 79.835 131.602 79.7004 131.622 79.6078C131.632 79.5616 131.64 79.5258 131.645 79.5015C131.648 79.4894 131.65 79.4801 131.651 79.4738C131.652 79.4707 131.653 79.4683 131.653 79.4666C131.653 79.4658 131.653 79.4652 131.653 79.4647C131.653 79.4645 131.653 79.4644 131.654 79.4642C131.654 79.4642 131.654 79.4641 131.654 79.4641C131.654 79.4641 131.654 79.464 131.654 79.464C131.654 79.464 131.654 79.464 131.163 79.3611ZM130.844 80.7725C127.238 79.888 120.624 78.2522 117.041 77.3754L116.799 78.3429C120.385 79.2205 126.988 80.8537 130.601 81.7399L130.844 80.7725ZM117.401 78.0007C117.599 77.3421 117.772 76.7605 117.896 76.3435C117.958 76.135 118.007 75.9677 118.041 75.8524C118.058 75.7948 118.071 75.7502 118.08 75.7199C118.085 75.7048 118.088 75.6933 118.09 75.6856C118.092 75.6817 118.092 75.6788 118.093 75.6768C118.093 75.6758 118.094 75.6751 118.094 75.6746C118.094 75.6743 118.094 75.6741 118.094 75.674C118.094 75.6739 118.094 75.6739 118.094 75.6739C118.094 75.6738 118.094 75.6738 118.094 75.6738C118.094 75.6738 118.094 75.6738 117.612 75.5352C117.131 75.3965 117.131 75.3965 117.131 75.3965C117.131 75.3965 117.131 75.3966 117.131 75.3966C117.131 75.3966 117.131 75.3966 117.131 75.3967C117.131 75.3968 117.131 75.397 117.13 75.3972C117.13 75.3977 117.13 75.3984 117.13 75.3994C117.129 75.4013 117.128 75.4042 117.127 75.408C117.125 75.4157 117.122 75.4271 117.117 75.4422C117.108 75.4722 117.095 75.5167 117.078 75.5741C117.044 75.689 116.995 75.8559 116.933 76.0639C116.81 76.48 116.637 77.0604 116.44 77.7176L117.401 78.0007ZM117.706 75.0455L115.078 74.5548L114.891 75.5342L117.519 76.0248L117.706 75.0455ZM114.502 74.9096L112.298 82.6322L113.263 82.9019L115.467 75.1793L114.502 74.9096ZM112.617 83.2386L115.026 84.0556L115.353 83.1126L112.943 82.2955L112.617 83.2386ZM115.189 83.5841C115.671 83.7231 115.671 83.7231 115.671 83.7231C115.671 83.7231 115.671 83.723 115.671 83.723C115.671 83.723 115.671 83.723 115.671 83.7229C115.671 83.7228 115.671 83.7226 115.671 83.7223C115.671 83.7218 115.672 83.7211 115.672 83.7201C115.672 83.7181 115.673 83.7152 115.674 83.7112C115.677 83.7034 115.68 83.6917 115.685 83.6763C115.694 83.6455 115.707 83.6001 115.725 83.5414C115.759 83.4241 115.81 83.254 115.872 83.0427C115.998 82.6201 116.173 82.0333 116.37 81.376L115.409 81.0929C115.211 81.7515 115.036 82.3395 114.91 82.7628C114.847 82.9745 114.797 83.145 114.762 83.2626C114.744 83.3215 114.731 83.3671 114.722 83.398C114.717 83.4134 114.714 83.4252 114.711 83.4331C114.71 83.4371 114.709 83.4401 114.709 83.4421C114.708 83.4431 114.708 83.4439 114.708 83.4444C114.708 83.4446 114.708 83.4448 114.708 83.445C114.708 83.445 114.708 83.4451 114.708 83.4451C114.708 83.4451 114.708 83.4451 114.708 83.4452C114.708 83.4452 114.708 83.4452 115.189 83.5841ZM115.713 81.7011C119.242 83.0131 125.91 85.5136 129.364 86.8018L129.719 85.8688C126.269 84.5822 119.595 82.0796 116.066 80.7678L115.713 81.7011ZM129.05 86.2324C128.937 86.7588 128.838 87.1981 128.767 87.5055C128.732 87.6592 128.704 87.7799 128.684 87.862C128.675 87.903 128.667 87.9344 128.662 87.9555C128.66 87.966 128.658 87.9739 128.656 87.9791C128.656 87.9818 128.655 87.9837 128.655 87.985C128.655 87.9856 128.655 87.9861 128.655 87.9864C128.655 87.9865 128.655 87.9867 128.655 87.9867C128.655 87.9867 128.655 87.9868 128.655 87.9868C128.655 87.9868 128.655 87.9868 128.655 87.9868C128.655 87.9868 128.655 87.9868 129.142 88.1021C129.63 88.2175 129.63 88.2175 129.63 88.2175C129.63 88.2175 129.63 88.2175 129.63 88.2174C129.63 88.2174 129.63 88.2174 129.63 88.2173C129.63 88.2172 129.63 88.2171 129.63 88.2169C129.631 88.2165 129.631 88.2159 129.631 88.2152C129.631 88.2137 129.632 88.2115 129.632 88.2087C129.634 88.2031 129.636 88.1947 129.638 88.1838C129.644 88.162 129.651 88.1297 129.661 88.0878C129.681 88.0039 129.71 87.8813 129.746 87.7256C129.817 87.4142 129.918 86.9701 130.032 86.4382L129.05 86.2324ZM129.034 88.5889L131.32 89.0844L131.536 88.1109L129.251 87.6154L129.034 88.5889Z" fill="#105E5D"/>
<path d="M103.318 55.4391L101.884 55.4409L101.406 55.4415L101.037 54.4054L100.288 53.0592L99.3342 51.5294L98.3237 50.1219L98.3238 49.7547L98.5167 49.2651L98.176 48.592L97.7777 48.0639L98.324 48.0632L99.1433 48.0621L100.031 48.0055L101.192 47.9486L102.557 47.8359L103.854 47.6678L105.493 47.4437L106.79 47.2755L107.814 47.1633L108.36 47.1626L108.565 47.2734L108.77 47.5506L108.976 48.0499L109.319 49.0486L109.73 50.3802L109.936 51.4345L110.142 52.6554L110.349 53.6542L110.486 54.6531L110.487 55.0971L110.419 55.3193L110.282 55.4304L110.009 55.5418L109.736 55.5421L108.712 55.5434L107.62 55.5448L106.459 55.5462L105.503 55.5474L104.342 55.4379L103.318 55.4391Z" fill="white" stroke="#A8CCF7" stroke-width="2"/>
<path d="M93.1963 41.0225L92.2419 42.1893L93.1397 42.7789L94.0255 43.3907L95.2521 44.3086L96.4105 45.2264L97.16 45.8383L97.7051 46.3278L98.1821 46.8972L98.8635 47.6129L100.647 46.8969L101.943 46.0627L103.444 45.0617L104.74 44.283L105.764 43.5602L107.06 42.5594L108.288 41.6143L109.379 40.7804L110.266 39.9467L111.357 38.9462L111.63 38.5573L111.698 38.1686L111.629 37.9467L111.492 37.7249L111.082 37.3923L109.989 36.8942L108.691 36.3407L106.915 35.6768L105.617 35.0678L104.387 34.4588L103.089 33.9609L101.586 33.2967L99.8773 32.4107L98.4426 31.8019L97.6232 31.7474L97.4185 31.9142L97.146 32.4141L96.8744 33.6356L96.5346 34.9127L96.1946 36.0787L95.65 37.4115L94.9688 38.6891L94.151 39.9667L93.1963 41.0225Z" fill="white" stroke="#A7CAF1" stroke-width="2"/>
<path d="M104.569 68.0025C104.157 70.9941 103.119 73.3508 101.573 75.2295C100.012 77.1272 97.8726 78.6116 95.1638 79.7475C89.6978 82.0396 82.1192 82.8318 72.9685 82.8432C63.812 82.8546 56.469 82.0792 51.2756 79.8123C48.7075 78.6912 46.7114 77.2244 45.2732 75.3441C43.851 73.4847 42.9116 71.1393 42.5667 68.146C42.5765 60.4128 45.3201 53.0869 50.5089 47.6937C55.7018 42.2962 63.4301 38.7448 73.5725 38.7322C93.6909 38.7072 105.351 54.9831 104.569 68.0025Z" fill="#A1FFEF" stroke="#00A8A6" stroke-width="2"/>
<path d="M57.525 73.8161C61.2963 73.8114 64.349 70.2787 64.3435 65.9256C64.3381 61.5725 61.2765 58.0474 57.5053 58.0521C53.7341 58.0568 50.6813 61.5895 50.6868 65.9426C50.6922 70.2957 53.7538 73.8208 57.525 73.8161Z" fill="#492E23"/>
<path d="M89.755 73.7759C93.5262 73.7712 96.579 70.2634 96.5735 65.9409C96.5681 61.6185 93.5066 58.1182 89.7354 58.1229C85.9642 58.1276 82.9114 61.6355 82.9168 65.9579C82.9222 70.2804 85.9838 73.7806 89.755 73.7759Z" fill="#492E23"/>
<path d="M55.8761 65.7141C57.7617 65.7118 59.2887 64.4673 59.2868 62.9346C59.2849 61.4018 57.7547 60.1611 55.8691 60.1635C53.9835 60.1658 52.4565 61.4103 52.4584 62.9431C52.4603 64.4758 53.9905 65.7165 55.8761 65.7141Z" fill="#D9D9D9"/>
<path d="M55.8761 65.7141C57.7617 65.7118 59.2887 64.4673 59.2868 62.9346C59.2849 61.4018 57.7547 60.1611 55.8691 60.1635C53.9835 60.1658 52.4565 61.4103 52.4584 62.9431C52.4603 64.4758 53.9905 65.7165 55.8761 65.7141Z" fill="white"/>
<path d="M59.9124 71.8147C60.7797 71.8136 61.4821 71.2412 61.4812 70.5362C61.4803 69.8311 60.7765 69.2605 59.9092 69.2616C59.0419 69.2626 58.3395 69.8351 58.3404 70.5401C58.3413 71.2451 59.0451 71.8158 59.9124 71.8147Z" fill="#D9D9D9"/>
<path d="M59.9124 71.8147C60.7797 71.8136 61.4821 71.2412 61.4812 70.5362C61.4803 69.8311 60.7765 69.2605 59.9092 69.2616C59.0419 69.2626 58.3395 69.8351 58.3404 70.5401C58.3413 71.2451 59.0451 71.8158 59.9124 71.8147Z" fill="white"/>
<path d="M92.2788 71.7743C93.1461 71.7733 93.8485 71.2008 93.8476 70.4958C93.8468 69.7908 93.1429 69.2201 92.2756 69.2212C91.4083 69.2223 90.7059 69.7947 90.7068 70.4997C90.7077 71.2048 91.4115 71.7754 92.2788 71.7743Z" fill="white"/>
<path d="M84.8988 67.4541C85.5399 67.4533 86.059 67.0551 86.0584 66.5646C86.0578 66.0742 85.5376 65.6772 84.8966 65.678C84.2555 65.6788 83.7363 66.0771 83.737 66.5675C83.7376 67.058 84.2577 67.4549 84.8988 67.4541Z" fill="white"/>
<path d="M53.0786 67.4937C53.7196 67.4929 54.2388 67.0947 54.2382 66.6042C54.2376 66.1138 53.7174 65.7168 53.0763 65.7176C52.4353 65.7184 51.9161 66.1166 51.9167 66.6071C51.9173 67.0975 52.4375 67.4945 53.0786 67.4937Z" fill="white"/>
<path d="M88.1062 65.7849C89.9918 65.7826 91.5188 64.5381 91.5169 63.0054C91.515 61.4726 89.9848 60.2319 88.0992 60.2343C86.2136 60.2366 84.6866 61.4811 84.6885 63.0139C84.6904 64.5466 86.2206 65.7873 88.1062 65.7849Z" fill="white"/>
<path d="M51.0713 73.8062L48.6278 75.606" stroke="#00A8A6" stroke-linecap="round"/>
<path d="M55.0162 75.4669L52.2008 77.5945" stroke="#00A8A6" stroke-linecap="round"/>
<path d="M53.3189 74.5114L49.9077 76.959" stroke="#00A8A6" stroke-linecap="round"/>
<path d="M57.0901 76.3578L55.426 77.5498" stroke="#00A8A6" stroke-linecap="round"/>
<path d="M96.3493 73.6568L98.7973 75.4506" stroke="#00A8A6" stroke-linecap="round"/>
<path d="M92.4086 75.3273L95.2292 77.4479" stroke="#00A8A6" stroke-linecap="round"/>
<path d="M94.1035 74.3677L97.5208 76.8067" stroke="#00A8A6" stroke-linecap="round"/>
<path d="M90.3369 76.2233L92.004 77.4113" stroke="#00A8A6" stroke-linecap="round"/>
<path d="M55.7792 43.0118L53.7987 42.7922L53.3891 42.8483L52.7067 43.2377L51.8882 43.9047L50.9333 44.7385L49.9783 45.5168L49.0235 46.5171L48.1371 47.5173L47.1826 48.6842L46.2965 49.9064L45.6149 50.9063L44.9334 51.9618L44.2518 52.9618L44.0475 53.4061L44.1161 53.6835L44.6628 54.0159L45.6191 54.2922L46.5754 54.5131L47.6682 54.7337L48.9658 54.9542L50.6049 55.1741L52.3123 55.394L54.2245 55.6136L55.8635 55.7782L57.5708 55.9425L59.5511 56.0511L61.19 56.1046L62.8972 56.1579L64.536 56.1559L66.7893 56.1531L68.2915 56.0957L70.0667 55.9825L71.9102 55.8692L73.9585 55.7001L76.1433 55.4754L77.9866 55.2511L79.4886 55.0271L81.2636 54.7474L83.3117 54.4118L85.7011 53.9648L87.2712 53.6298L88.8412 53.2948L90.2065 52.9601L91.9129 52.4584L93.6194 51.9567L95.7353 51.288L97.783 50.6194L99.0798 50.1737L100.035 49.8395L100.172 49.6173L100.035 49.1734L99.6241 48.6188L98.8035 47.6207L98.3247 47.0108L97.7778 46.4564L97.0941 45.7912L96.4106 45.1814L95.1802 44.1839L94.2233 43.4635L93.1983 42.7987L92.0364 42.023L90.943 41.3028L90.1913 40.8597L89.7816 40.8602L87.8702 41.3066L85.6858 41.8089L83.1599 42.2561L80.9069 42.592L78.4492 42.9281L75.3768 43.2094L73.2602 43.3786L71.4167 43.4919L69.2999 43.4945L67.3197 43.497L65.2712 43.4996L62.813 43.5026L60.2863 43.3392L57.828 43.2313L55.7792 43.0118Z" fill="white" stroke="#A7CAF1" stroke-width="2"/>
<path d="M95.55 44.0249L97.0159 42.2746L98.4819 40.5243M98.8271 43.6322L97.0194 45.0221M105.433 52.0332L102.087 51.7876M55.8123 46.5721L52.4661 46.3265M53.123 48.1771L51.1709 48.0488" stroke="#A7CAF1" stroke-width="1.5" stroke-linecap="round"/>
<path d="M71.7018 52.8167C74.1908 52.8136 76.2064 51.1709 76.2039 49.1477C76.2014 47.1244 74.1816 45.4867 71.6926 45.4898C69.2036 45.4929 67.1879 47.1356 67.1904 49.1589C67.193 51.1822 69.2128 52.8198 71.7018 52.8167Z" fill="#F74527"/>
<path d="M78.634 73.75C78.634 76.0696 76.4492 78.25 73.3608 78.25C70.2724 78.25 68.0876 76.0696 68.0876 73.75C68.0876 71.4305 70.2724 69.25 73.3608 69.25C76.4492 69.25 78.634 71.4305 78.634 73.75Z" fill="#F9D877" stroke="#492E23" stroke-width="3"/>
<ellipse cx="71.4794" cy="72.25" rx="7.90206" ry="6.75" fill="#A1FFEF"/>
<path d="M133.957 79.1L132.756 83.0344L130.922 81.8342L131.757 78.5L133.957 79.1Z" fill="#00A8A6"/>
</svg>
