<svg width="34" height="23" viewBox="0 0 34 23" fill="none" xmlns="http://www.w3.org/2000/svg">
<path d="M36.4197 15.5662L36.403 15.6839C36.1093 17.7514 35.3391 19.5211 34.1073 20.9718C32.8815 22.4155 31.2881 23.4388 29.4999 24.1652L29.4998 24.1653C25.9894 25.5913 21.4155 25.9939 16.4281 25.9999C11.4489 26.0059 6.97152 25.6168 3.5802 24.1827L3.58017 24.1827C1.84516 23.449 0.318223 22.4115 -0.836609 20.9489L36.4197 15.5662ZM36.4197 15.5662L36.4271 15.4475M36.4197 15.5662L36.4271 15.4475M36.4271 15.4475C36.9599 6.85308 29.2265 -3.01504 16.746 -2.99998C10.5776 -2.99256 5.62419 -0.88182 2.20735 2.55863C-1.18351 5.97288 -2.93259 10.5698 -2.93878 15.3328L-2.93901 15.5125M36.4271 15.4475L-2.93901 15.5125M-2.93901 15.5125L-2.91779 15.691M-2.93901 15.5125L-2.91779 15.691M-2.91779 15.691C-2.6758 17.7258 -1.98936 19.489 -0.836649 20.9489L-2.91779 15.691Z" fill="#DDFFF9" stroke="#00A8A6" stroke-width="6"/>
<path d="M16.0288 17.75C17.8983 17.75 19.418 16.2413 19.418 14.375C19.418 14.1503 19.3961 13.9371 19.3305 13.7521C19.2612 13.5565 19.1333 13.3693 18.9178 13.2596C18.7152 13.1565 18.5073 13.1594 18.3507 13.1827C18.1932 13.2063 18.035 13.2587 17.8943 13.3122C17.7747 13.3575 17.6456 13.4125 17.52 13.4659C17.4962 13.476 17.4726 13.4861 17.4491 13.496C17.2968 13.5605 17.1434 13.6241 16.9845 13.6811C16.6655 13.7956 16.3468 13.875 16.0288 13.875C15.7108 13.875 15.3921 13.7956 15.0731 13.6811C14.9142 13.6241 14.7608 13.5605 14.6085 13.496C14.5851 13.4861 14.5614 13.476 14.5376 13.4659C14.412 13.4125 14.2829 13.3575 14.1633 13.3122C14.0226 13.2587 13.8645 13.2063 13.7069 13.1827C13.5504 13.1594 13.3424 13.1565 13.1399 13.2596C12.9243 13.3693 12.7964 13.5565 12.7271 13.7521C12.6615 13.9371 12.6396 14.1503 12.6396 14.375C12.6396 16.2413 14.1593 17.75 16.0288 17.75Z" fill="#B6779D" stroke="#1F807D"/>
<path d="M7.79759 11.7591C9.33217 11.7573 10.5744 10.3644 10.5721 8.64806C10.5698 6.9317 9.32393 5.54177 7.78935 5.54357C6.25477 5.54538 5.01259 6.93824 5.01486 8.6546C5.01714 10.371 6.26301 11.7609 7.79759 11.7591Z" fill="#492E23"/>
<path d="M7.12633 8.56371C7.89362 8.56279 8.51499 8.07211 8.51421 7.46776C8.51343 6.8634 7.89078 6.37423 7.12349 6.37516C6.3562 6.37608 5.73483 6.86676 5.73561 7.47111C5.73639 8.07546 6.35903 8.56464 7.12633 8.56371Z" fill="white"/>
<path d="M8.76863 10.9691C9.12155 10.9687 9.40736 10.743 9.407 10.465C9.40665 10.187 9.12025 9.962 8.76732 9.96243C8.4144 9.96285 8.12859 10.1885 8.12895 10.4665C8.12931 10.7445 8.4157 10.9695 8.76863 10.9691Z" fill="white"/>
<path d="M5.98773 9.26526C6.24859 9.26495 6.45985 9.10793 6.4596 8.91455C6.45935 8.72118 6.24768 8.56467 5.98682 8.56498C5.72596 8.5653 5.5147 8.72232 5.51495 8.91569C5.5152 9.10907 5.72687 9.26558 5.98773 9.26526Z" fill="white"/>
<path d="M23.1022 11.7152C24.6367 11.7134 25.8788 10.3304 25.8765 8.62618C25.8741 6.92191 24.6282 5.54173 23.0936 5.54346C21.5591 5.5452 20.317 6.92818 20.3193 8.63245C20.3217 10.3367 21.5676 11.7169 23.1022 11.7152Z" fill="#492E23"/>
<path d="M24.1286 10.925C24.4816 10.9246 24.7674 10.6989 24.767 10.4209C24.7666 10.1429 24.4803 9.91793 24.1273 9.91836C23.7744 9.91878 23.4886 10.1445 23.489 10.4225C23.4893 10.7004 23.7757 10.9254 24.1286 10.925Z" fill="white"/>
<path d="M21.1256 9.22177C21.3864 9.22146 21.5977 9.06444 21.5974 8.87106C21.5972 8.67769 21.3855 8.52118 21.1247 8.52149C20.8638 8.52181 20.6525 8.67883 20.6528 8.8722C20.653 9.06558 20.8647 9.22209 21.1256 9.22177Z" fill="white"/>
<path d="M22.4305 8.56354C23.1978 8.56261 23.8192 8.07194 23.8184 7.4676C23.8176 6.86325 23.195 6.37408 22.4277 6.375C21.6604 6.37593 21.0391 6.8666 21.0398 7.47095C21.0406 8.07529 21.6633 8.56446 22.4305 8.56354Z" fill="white"/>
<path d="M3.85394 17.6177L2.58728 18.5218Z" fill="#B5D4F9"/>
<path d="M3.85394 17.6177L2.58728 18.5218" stroke="#B6779D" stroke-width="0.5" stroke-linecap="round"/>
<path d="M5.89907 18.4518L4.43961 19.5205Z" fill="#B5D4F9"/>
<path d="M5.89907 18.4518L4.43961 19.5205" stroke="#B6779D" stroke-width="0.5" stroke-linecap="round"/>
<path d="M5.01928 17.9719L3.25092 19.2013Z" fill="#B5D4F9"/>
<path d="M5.01928 17.9719L3.25092 19.2013" stroke="#B6779D" stroke-width="0.5" stroke-linecap="round"/>
<path d="M6.97419 18.8993L6.11154 19.498Z" fill="#B5D4F9"/>
<path d="M6.97419 18.8993L6.11154 19.498" stroke="#B6779D" stroke-width="0.5" stroke-linecap="round"/>
<path d="M27.3257 17.5425L28.5947 18.4435Z" fill="#B5D4F9"/>
<path d="M27.3257 17.5425L28.5947 18.4435" stroke="#B6779D" stroke-width="0.5" stroke-linecap="round"/>
<path d="M25.2828 18.3817L26.745 19.4468Z" fill="#B5D4F9"/>
<path d="M25.2828 18.3817L26.745 19.4468" stroke="#B6779D" stroke-width="0.5" stroke-linecap="round"/>
<path d="M26.1613 17.8997L27.9328 19.1248Z" fill="#B5D4F9"/>
<path d="M26.1613 17.8997L27.9328 19.1248" stroke="#B6779D" stroke-width="0.5" stroke-linecap="round"/>
<path d="M24.2088 18.8318L25.073 19.4284Z" fill="#B5D4F9"/>
<path d="M24.2088 18.8318L25.073 19.4284" stroke="#B6779D" stroke-width="0.5" stroke-linecap="round"/>
</svg>
